<svg xmlns="http://www.w3.org/2000/svg" width="100%" height="100%" viewBox="0 0 528 467" clip-rule="evenodd" fill-rule="evenodd" stroke-miterlimit="10"><g id="Instruments" transform="translate(260.4,222.1) translate(0,0) translate(-1424.1,-490.5)"><g id="Synth" opacity="0" transform="translate(1450,588.5) translate(0,0) rotate(-15) translate(-137.2,-45.5)"><g opacity=".9" transform="translate(137.2,45.5) translate(-137.2,-45.5)"><g transform="translate(137.2,45.5) translate(-137.2,-45.5)"><g transform="translate(137.2,84.7) translate(-137.2,-6.2)"><path d="M274.5 6.2c0-3.4-2.8-6.2-6.3-6.2h-262c-3.4 0-6.2 2.8-6.2 6.2c0 3.5 2.8 6.3 6.2 6.3h262c3.5 0 6.3-2.8 6.3-6.3Z" fill="#333" fill-opacity=".21" transform="translate(137.2,6.2) translate(-137.2,-6.2)"/></g><g transform="translate(137.2,44.8) translate(-137.2,-42.4)"><path d="M274.5 1.7v81.5c0 .9-1 1.6-2.3 1.6h-4.3v-18.5h-260.5v18.5h-5.2c-1.2 0-2.2-0.7-2.2-1.6v-81.5c0-1 1-1.7 2.2-1.7h270c1.3 0 2.3 .7 2.3 1.7Z" fill="#c1272d" fill-rule="nonzero" transform="translate(137.2,42.4) translate(-137.2,-42.4)"/></g><g transform="translate(137.4,65) translate(-113.6,-22.3)"><path d="M1.7 0h223.6l1.8 44.6h-227.1l1.7-44.6" fill="#f2f2f2" fill-rule="nonzero" transform="translate(113.6,22.3) translate(-113.6,-22.3)"/></g><g transform="translate(216.6,1.2) translate(-3.9,-1.2)"><path d="M2.4 0h3c1.4 0 2.5 1.1 2.5 2.4h-7.9c0-1.3 1.1-2.4 2.4-2.4Z" fill="#4d4d4d" fill-rule="nonzero" transform="translate(3.9,1.2) translate(-3.9,-1.2)"/></g><g transform="translate(24.3,1.2) translate(-3.9,-1.2)"><path d="M2.4 0h3c1.4 0 2.5 1.1 2.5 2.4h-7.9c0-1.3 1.1-2.4 2.4-2.4Z" fill="#4d4d4d" fill-rule="nonzero" transform="translate(3.9,1.2) translate(-3.9,-1.2)"/></g><g transform="translate(230.2,1.2) translate(-3.9,-1.2)"><path d="M2.4 0h3c1.4 0 2.5 1.1 2.5 2.4h-7.9c0-1.3 1.1-2.4 2.4-2.4Z" fill="#4d4d4d" fill-rule="nonzero" transform="translate(3.9,1.2) translate(-3.9,-1.2)"/></g><g transform="translate(242.7,1.2) translate(-3.9,-1.2)"><path d="M2.4 0h3c1.4 0 2.5 1.1 2.5 2.4h-7.9c0-1.3 1.1-2.4 2.4-2.4Z" fill="#4d4d4d" fill-rule="nonzero" transform="translate(3.9,1.2) translate(-3.9,-1.2)"/></g><g transform="translate(40.8,78.4) translate(0,-8.9)"><path d="M0 0v17.8" fill="none" stroke="#e6e6e6" stroke-width="4px" transform="translate(0,8.9) translate(0,-8.9)"/></g><g transform="translate(50.3,78.4) translate(0,-8.9)"><path d="M0 0v17.8" fill="none" stroke="#e6e6e6" stroke-width="4px" transform="translate(0,8.9) translate(0,-8.9)"/></g><g transform="translate(58.9,64.9) translate(0,-22.3)"><path d="M0 0v44.6" fill="none" stroke="#e6e6e6" stroke-width="4px" transform="translate(0,22.3) translate(0,-22.3)"/></g><g transform="translate(98.9,64.9) translate(0,-22.3)"><path d="M0 0v44.6" fill="none" stroke="#e6e6e6" stroke-width="4px" transform="translate(0,22.3) translate(0,-22.3)"/></g><g transform="translate(127.6,64.9) translate(0,-22.3)"><path d="M0 0v44.6" fill="none" stroke="#e6e6e6" stroke-width="4px" transform="translate(0,22.3) translate(0,-22.3)"/></g><g transform="translate(166.6,64.9) translate(0,-22.3)"><path d="M0 0v44.6" fill="none" stroke="#e6e6e6" stroke-width="4px" transform="translate(0,22.3) translate(0,-22.3)"/></g><g transform="translate(195.4,64.9) translate(0,-22.3)"><path d="M0 0v44.6" fill="none" stroke="#e6e6e6" stroke-width="4px" transform="translate(0,22.3) translate(0,-22.3)"/></g><g transform="translate(234.4,64.9) translate(0,-22.3)"><path d="M0 0v44.6" fill="none" stroke="#e6e6e6" stroke-width="4px" transform="translate(0,22.3) translate(0,-22.3)"/></g><g transform="translate(69.4,77.9) translate(0,-9.4)"><path d="M0 0v18.7" fill="none" stroke="#e6e6e6" stroke-width="4px" transform="translate(0,9.4) translate(0,-9.4)"/></g><g transform="translate(79.4,78.4) translate(0,-8.9)"><path d="M0 0v17.8" fill="none" stroke="#e6e6e6" stroke-width="4px" transform="translate(0,8.9) translate(0,-8.9)"/></g><g transform="translate(88.8,77.9) translate(0,-9.4)"><path d="M0 0v18.7" fill="none" stroke="#e6e6e6" stroke-width="4px" transform="translate(0,9.4) translate(0,-9.4)"/></g><g transform="translate(108.2,78.4) translate(0,-8.9)"><path d="M0 0v17.8" fill="none" stroke="#e6e6e6" stroke-width="4px" transform="translate(0,8.9) translate(0,-8.9)"/></g><g transform="translate(118,78.4) translate(0,-8.9)"><path d="M0 0v17.8" fill="none" stroke="#e6e6e6" stroke-width="4px" transform="translate(0,8.9) translate(0,-8.9)"/></g><g transform="translate(137.2,78.4) translate(0,-8.9)"><path d="M0 0v17.8" fill="none" stroke="#e6e6e6" stroke-width="4px" transform="translate(0,8.9) translate(0,-8.9)"/></g><g transform="translate(147.1,78.4) translate(0,-8.9)"><path d="M0 0v17.8" fill="none" stroke="#e6e6e6" stroke-width="4px" transform="translate(0,8.9) translate(0,-8.9)"/></g><g transform="translate(156.7,78.4) translate(0,-8.9)"><path d="M0 0v17.8" fill="none" stroke="#e6e6e6" stroke-width="4px" transform="translate(0,8.9) translate(0,-8.9)"/></g><g transform="translate(176.1,78.4) translate(0,-8.9)"><path d="M0 0v17.8" fill="none" stroke="#e6e6e6" stroke-width="4px" transform="translate(0,8.9) translate(0,-8.9)"/></g><g transform="translate(185.8,78.4) translate(0,-8.9)"><path d="M0 0v17.8" fill="none" stroke="#e6e6e6" stroke-width="4px" transform="translate(0,8.9) translate(0,-8.9)"/></g><g transform="translate(205.1,78.4) translate(0,-8.9)"><path d="M0 0v17.8" fill="none" stroke="#e6e6e6" stroke-width="4px" transform="translate(0,8.9) translate(0,-8.9)"/></g><g transform="translate(215,78.4) translate(0,-8.9)"><path d="M0 0v17.8" fill="none" stroke="#e6e6e6" stroke-width="4px" transform="translate(0,8.9) translate(0,-8.9)"/></g><g transform="translate(224.8,78.4) translate(0,-8.9)"><path d="M0 0v17.8" fill="none" stroke="#e6e6e6" stroke-width="4px" transform="translate(0,8.9) translate(0,-8.9)"/></g></g><g transform="translate(137.6,44.8) translate(-130.3,-42.4)"><path d="M260.5 2.2v82.6h-20.3c-1.6 0-3-1.3-3.1-3l-1.5-40c-0.1-0.9-0.8-1.6-1.7-1.6h-207.8c-0.9 0-1.7 .7-1.7 1.7l-1.4 39.9c0 1.7-1.4 3-3.1 3h-19.9v-82.6c0-1.2 1-2.2 2.2-2.2h256.1c1.2 0 2.2 1 2.2 2.2Z" fill="#ff1d25" fill-rule="nonzero" transform="translate(130.3,42.4) translate(-130.3,-42.4)"/><g transform="translate(150.3,26.7) translate(-83.2,-2.1)"><path d="M0 4.1h166.4v-4.1" fill="none" stroke="#fff" stroke-linecap="round" stroke-width="4px" transform="translate(83.2,2.1) translate(-83.2,-2.1)"/></g><g transform="translate(130.4,16.3) translate(-124.3,-8.3)"><path d="M248.6 5.6c0-3.1-2.5-5.6-5.6-5.6h-237.4c-3.1 0-5.6 2.5-5.6 5.6v5.4c0 3.1 2.5 5.6 5.6 5.6h237.4c3.1 0 5.6-2.5 5.6-5.6v-5.4Z" fill="#c1272d" transform="translate(124.3,8.3) translate(-124.3,-8.3)"/></g><g transform="translate(106.8,16.3) translate(-19.4,-6.7)"><path d="M38.8 5.6c0-3.1-2.5-5.6-5.6-5.6h-27.6c-3.1 0-5.6 2.5-5.6 5.6v2.2c0 3.1 2.5 5.6 5.6 5.6h27.6c3.1 0 5.6-2.5 5.6-5.6v-2.2Z" fill="#c69c6d" transform="translate(19.4,6.7) translate(-19.4,-6.7)"/></g><g transform="translate(148.3,16.3) translate(-19.4,-6.7)"><path d="M38.8 5.6c0-3.1-2.5-5.6-5.6-5.6h-27.6c-3.1 0-5.6 2.5-5.6 5.6v2.2c0 3.1 2.5 5.6 5.6 5.6h27.6c3.1 0 5.6-2.5 5.6-5.6v-2.2Z" fill="#c69c6d" transform="translate(19.4,6.7) translate(-19.4,-6.7)"/></g><g transform="translate(189.8,16.3) translate(-19.4,-6.7)"><path d="M38.8 5.6c0-3.1-2.5-5.6-5.6-5.6h-27.6c-3.1 0-5.6 2.5-5.6 5.6v2.2c0 3.1 2.5 5.6 5.6 5.6h27.6c3.1 0 5.6-2.5 5.6-5.6v-2.2Z" fill="#c69c6d" transform="translate(19.4,6.7) translate(-19.4,-6.7)"/></g><g transform="translate(224.3,16.3) translate(-12.7,-6.7)"><path d="M25.4 5.6c0-3.1-2.5-5.6-5.6-5.6h-14.2c-3.1 0-5.6 2.5-5.6 5.6v2.2c0 3.1 2.5 5.6 5.6 5.6h14.2c3.1 0 5.6-2.5 5.6-5.6v-2.2Z" fill="#c69c6d" transform="translate(12.7,6.7) translate(-12.7,-6.7)"/></g><g transform="translate(53.7,16.2) translate(-4.5,-4.5)"><ellipse rx="4.5" ry="4.5" fill="#fff" transform="translate(4.5,4.5)"/></g><g transform="translate(72.7,16.5) translate(-5.7,-5.7)"><ellipse rx="5.7" ry="5.7" fill="#fff" transform="translate(5.7,5.7)"/></g><g transform="translate(97.7,16.4) translate(-5.7,-5.7)"><ellipse rx="5.7" ry="5.7" fill="#42210b" transform="translate(5.7,5.7)"/></g><g transform="translate(89.9,11.6) translate(-1.3,-1.3)"><ellipse rx="1.3" ry="1.3" fill="#333" transform="translate(1.3,1.3)"/></g><g transform="translate(131.2,11.6) translate(-1.3,-1.3)"><ellipse rx="1.3" ry="1.3" fill="#333" transform="translate(1.3,1.3)"/></g><g transform="translate(172.5,11.6) translate(-1.3,-1.3)"><ellipse rx="1.3" ry="1.3" fill="#333" transform="translate(1.3,1.3)"/></g><g transform="translate(213.7,11.6) translate(-1.3,-1.3)"><ellipse rx="1.3" ry="1.3" fill="#333" transform="translate(1.3,1.3)"/></g><g transform="translate(116.6,16.4) translate(-5.7,-5.7)"><ellipse rx="5.7" ry="5.7" fill="#42210b" transform="translate(5.7,5.7)"/></g><g transform="translate(139.1,16.4) translate(-5.7,-5.7)"><ellipse rx="5.7" ry="5.7" fill="#42210b" transform="translate(5.7,5.7)"/></g><g transform="translate(158.2,16.4) translate(-5.7,-5.7)"><ellipse rx="5.7" ry="5.7" fill="#42210b" transform="translate(5.7,5.7)"/></g><g transform="translate(180.3,16.4) translate(-5.7,-5.7)"><ellipse rx="5.7" ry="5.7" fill="#42210b" transform="translate(5.7,5.7)"/></g><g transform="translate(199.6,16.4) translate(-5.7,-5.7)"><ellipse rx="5.7" ry="5.7" fill="#42210b" transform="translate(5.7,5.7)"/></g><g transform="translate(221.4,16.4) translate(-5.7,-5.7)"><ellipse rx="5.7" ry="5.7" fill="#42210b" transform="translate(5.7,5.7)"/></g><g transform="translate(29.1,16.5) translate(-0.9,-6.8)"><path d="M1.7 .9c0-0.5-0.4-0.9-0.8-0.9c-0.5 0-0.9 .4-0.9 .9v11.9c0 .4 .4 .8 .9 .8c.4 0 .8-0.4 .8-0.8v-11.9Z" transform="translate(.9,6.8) translate(-0.9,-6.8)"/></g><g transform="translate(38.8,16.5) translate(-0.9,-6.8)"><path d="M1.7 .9c0-0.5-0.4-0.9-0.8-0.9c-0.5 0-0.9 .4-0.9 .9v11.9c0 .4 .4 .8 .9 .8c.4 0 .8-0.4 .8-0.8v-11.9Z" transform="translate(.9,6.8) translate(-0.9,-6.8)"/></g><g transform="translate(32.7,53.6) translate(-2.5,-13.4)"><path d="M0 0h5v24.3c0 1.4-1.1 2.5-2.5 2.5c0 0 0 0 0 0c-1.4 0-2.5-1.1-2.5-2.5v-24.3Z" fill-rule="nonzero" transform="translate(2.5,13.4) translate(-2.5,-13.4)"/></g><g transform="translate(43.8,53.6) translate(-2.5,-13.4)"><path d="M0 0h5v24.3c0 1.4-1.1 2.5-2.5 2.5c0 0 0 0 0 0c-1.4 0-2.5-1.1-2.5-2.5v-24.3Z" fill-rule="nonzero" transform="translate(2.5,13.4) translate(-2.5,-13.4)"/></g><g transform="translate(60.6,53.6) translate(-2.5,-13.4)"><path d="M0 0h5v24.3c0 1.4-1.1 2.5-2.5 2.5c0 0 0 0 0 0c-1.4 0-2.5-1.1-2.5-2.5v-24.3Z" fill-rule="nonzero" transform="translate(2.5,13.4) translate(-2.5,-13.4)"/></g><g transform="translate(71.7,53.6) translate(-2.5,-13.4)"><path d="M0 0h5v24.3c0 1.4-1.1 2.5-2.5 2.5c0 0 0 0 0 0c-1.4 0-2.5-1.1-2.5-2.5v-24.3Z" fill-rule="nonzero" transform="translate(2.5,13.4) translate(-2.5,-13.4)"/></g><g transform="translate(83.1,53.6) translate(-2.5,-13.4)"><path d="M0 0h5v24.3c0 1.4-1.1 2.5-2.5 2.5c0 0 0 0 0 0c-1.4 0-2.5-1.1-2.5-2.5v-24.3Z" fill-rule="nonzero" transform="translate(2.5,13.4) translate(-2.5,-13.4)"/></g><g transform="translate(168,53.6) translate(-2.5,-13.4)"><path d="M0 0h5v24.3c0 1.4-1.1 2.5-2.5 2.5c0 0 0 0 0 0c-1.4 0-2.5-1.1-2.5-2.5v-24.3Z" fill-rule="nonzero" transform="translate(2.5,13.4) translate(-2.5,-13.4)"/></g><g transform="translate(179.1,53.6) translate(-2.5,-13.4)"><path d="M0 0h5v24.3c0 1.4-1.1 2.5-2.5 2.5c0 0 0 0 0 0c-1.4 0-2.5-1.1-2.5-2.5v-24.3Z" fill-rule="nonzero" transform="translate(2.5,13.4) translate(-2.5,-13.4)"/></g><g transform="translate(196,53.6) translate(-2.5,-13.4)"><path d="M0 0h5v24.3c0 1.4-1.1 2.5-2.5 2.5c0 0 0 0 0 0c-1.4 0-2.5-1.1-2.5-2.5v-24.3Z" fill-rule="nonzero" transform="translate(2.5,13.4) translate(-2.5,-13.4)"/></g><g transform="translate(207,53.6) translate(-2.5,-13.4)"><path d="M0 0h5v24.3c0 1.4-1.1 2.5-2.5 2.5c0 0 0 0 0 0c-1.4 0-2.5-1.1-2.5-2.5v-24.3Z" fill-rule="nonzero" transform="translate(2.5,13.4) translate(-2.5,-13.4)"/></g><g transform="translate(218.4,53.6) translate(-2.5,-13.4)"><path d="M0 0h5v24.3c0 1.4-1.1 2.5-2.5 2.5c0 0 0 0 0 0c-1.4 0-2.5-1.1-2.5-2.5v-24.3Z" fill-rule="nonzero" transform="translate(2.5,13.4) translate(-2.5,-13.4)"/></g><g transform="translate(100,53.6) translate(-2.5,-13.4)"><path d="M0 0h5v24.3c0 1.4-1.1 2.5-2.5 2.5c0 0 0 0 0 0c-1.4 0-2.5-1.1-2.5-2.5v-24.3Z" fill-rule="nonzero" transform="translate(2.5,13.4) translate(-2.5,-13.4)"/></g><g transform="translate(111.1,53.6) translate(-2.5,-13.4)"><path d="M0 0h5v24.3c0 1.4-1.1 2.5-2.5 2.5c0 0 0 0 0 0c-1.4 0-2.5-1.1-2.5-2.5v-24.3Z" fill-rule="nonzero" transform="translate(2.5,13.4) translate(-2.5,-13.4)"/></g><g transform="translate(127.9,53.6) translate(-2.5,-13.4)"><path d="M0 0h5v24.3c0 1.4-1.1 2.5-2.5 2.5c0 0 0 0 0 0c-1.4 0-2.5-1.1-2.5-2.5v-24.3Z" fill-rule="nonzero" transform="translate(2.5,13.4) translate(-2.5,-13.4)"/></g><g transform="translate(139,53.6) translate(-2.5,-13.4)"><path d="M0 0h5v24.3c0 1.4-1.1 2.5-2.5 2.5c0 0 0 0 0 0c-1.4 0-2.5-1.1-2.5-2.5v-24.3Z" fill-rule="nonzero" transform="translate(2.5,13.4) translate(-2.5,-13.4)"/></g><g transform="translate(150.4,53.6) translate(-2.5,-13.4)"><path d="M0 0h5v24.3c0 1.4-1.1 2.5-2.5 2.5c0 0 0 0 0 0c-1.4 0-2.5-1.1-2.5-2.5v-24.3Z" fill-rule="nonzero" transform="translate(2.5,13.4) translate(-2.5,-13.4)"/></g><g transform="translate(14.8,16.3) translate(-6.8,-6.8)"><path d="M13.7 6.8c0-3.7-3.1-6.8-6.9-6.8c-3.7 0-6.8 3.1-6.8 6.8c0 3.8 3.1 6.9 6.8 6.9c3.8 0 6.9-3.1 6.9-6.9Z" fill="#fff" transform="translate(6.8,6.8) translate(-6.8,-6.8)"/></g><g transform="translate(246.1,16.4) translate(-6.8,-6.8)"><path d="M13.7 6.8c0-3.7-3.1-6.8-6.9-6.8c-3.7 0-6.8 3.1-6.8 6.8c0 3.8 3.1 6.9 6.8 6.9c3.8 0 6.9-3.1 6.9-6.9Z" fill="#fff" transform="translate(6.8,6.8) translate(-6.8,-6.8)"/></g><g transform="translate(28.9,13.6) translate(-3,-2.6)"><path d="M6 2.6c0-1.4-1.2-2.6-2.6-2.6h-0.8c-1.4 0-2.6 1.2-2.6 2.6c0 1.5 1.2 2.6 2.6 2.6h.8c1.4 0 2.6-1.1 2.6-2.6Z" fill="#fff" transform="translate(3,2.6) translate(-3,-2.6)"/></g><g transform="translate(38.6,16.8) translate(-3,-2.6)"><path d="M6 2.6c0-1.4-1.2-2.6-2.6-2.6h-0.8c-1.4 0-2.6 1.2-2.6 2.6c0 1.5 1.2 2.6 2.6 2.6h.8c1.4 0 2.6-1.1 2.6-2.6Z" fill="#fff" transform="translate(3,2.6) translate(-3,-2.6)"/></g><g transform="translate(130.8,33.9) translate(-33.2,0)"><path d="M0 0h66.3" fill="none" stroke="#fff" stroke-linecap="round" stroke-width="4px" transform="translate(33.2,0) translate(-33.2,0)"/></g></g></g></g><g id="Drums_1" opacity="0" transform="translate(1300,418.2) translate(0,0) rotate(5) translate(-61.8,-41.2)"><path d="M123.6 11.4c0 1.6-1.8 3.1-5 4.5c-66.8-19.2-113.6 0-113.6 0c-3.2-1.4-5-2.9-5-4.5c0-6.3 27.7-11.4 61.8-11.4c34.1 0 61.8 5.1 61.8 11.4Z" fill="#1a1a1a" fill-rule="nonzero" transform="translate(61.8,8) translate(-61.8,-8)"/><g transform="translate(61.8,15.1) translate(-56.8,-7.7)"><path id="_a0" d="M113.6 8.5c-0.7 .3-1.3 .6-2.1 .8c-5 1.8-12.5 3.3-21.7 4.4c-11 1.2-22 1.8-33 1.7c-11.7 .1-23.4-0.6-35.1-2c-6.6-0.7-13.2-2.1-19.7-4.1c-0.7-0.2-1.4-0.5-2-0.8c0 0 46.8-19.2 113.6 0Z" fill="#e6e6e6" fill-rule="nonzero" transform="translate(56.8,7.7) translate(-56.8,-7.7)"/></g><g transform="translate(61.8,22.4) translate(-61.8,-11)"><path d="M123.6 0v10.6c0 1.6-1.8 3.1-5 4.5c-9.5 4.1-31.3 6.9-56.8 6.9c-25.5 0-47.3-2.8-56.8-6.9c-3.2-1.4-5-2.9-5-4.5v-10.6c0 1.6 1.8 3.1 5 4.5c.6 .3 1.3 .5 2 .8c6.5 2 13.1 3.4 19.7 4.1c11.7 1.4 23.4 2.1 35.1 2c11 .1 22.1-0.5 33-1.7c9.2-1.1 16.7-2.6 21.7-4.4c.8-0.3 1.5-0.5 2.1-0.8c3.2-1.4 5-2.9 5-4.5Z" fill="#333" fill-rule="nonzero" transform="translate(61.8,11) translate(-61.8,-11)"/></g><g transform="translate(61.8,71.4) translate(-61.8,-11)"><path d="M123.6 0v10.6c0 1.6-1.8 3.1-5 4.5c-9.5 4.1-31.3 6.9-56.8 6.9c-25.5 0-47.3-2.8-56.8-6.9c-3.2-1.4-5-2.9-5-4.5v-10.6c0 1.6 1.8 3.1 5 4.5c.6 .3 1.3 .5 2 .8c6.5 2 13.1 3.4 19.7 4.1c11.7 1.4 23.4 2.1 35.1 2c11 .1 22.1-0.5 33-1.7c9.2-1.1 16.7-2.6 21.7-4.4c.8-0.3 1.5-0.5 2.1-0.8c3.2-1.4 5-2.9 5-4.5Z" fill="#333" fill-rule="nonzero" transform="translate(61.8,11) translate(-61.8,-11)"/></g><g transform="translate(61.8,46.9) translate(-61.8,-24.9)"><path d="M123.6 0v38.3c0 1.6-1.8 3.2-5 4.5c-9.5 4.1-31.3 7-56.8 7c-25.5 0-47.3-2.9-56.8-7c-3.2-1.3-5-2.9-5-4.5v-38.3c0 1.6 1.8 3.1 5 4.5c9.5 4.1 31.3 6.9 56.8 6.9c25.4 0 47.3-2.8 56.8-6.9c3.2-1.4 5-2.9 5-4.5Z" fill="#29a225" fill-rule="nonzero" transform="translate(61.8,24.9) translate(-61.8,-24.9)"/></g><g transform="translate(0,22.3) translate(0,-0.3)"><path d="M0 .6v-0.6" fill="none" transform="translate(0,.3) translate(0,-0.3)"/></g><g transform="translate(0,16.3) translate(0,-5.7)"><path d="M0 0v11.4" fill="none" transform="translate(0,5.7) translate(0,-5.7)"/></g><g transform="translate(43,50.8) translate(-5.1,-5.1)"><ellipse rx="5.1" ry="5.1" fill="#4d4d4d" transform="translate(5.1,5.1)"/></g><g transform="translate(81.4,50.8) translate(-5.1,-5.1)"><ellipse rx="5.1" ry="5.1" fill="#4d4d4d" transform="translate(5.1,5.1)"/></g><g transform="translate(43,50.8) translate(-3,-3)"><ellipse rx="3" ry="3" fill="#999" transform="translate(3,3)"/></g><g transform="translate(81.4,50.8) translate(-3,-3)"><ellipse rx="3" ry="3" fill="#999" transform="translate(3,3)"/></g><g transform="translate(107.9,45.5) translate(-2.7,-4.5)"><ellipse rx="2.7" ry="4.5" fill="#4d4d4d" transform="translate(2.7,4.5)"/></g><g transform="translate(110,45.5) rotate(180) translate(-3.2,-2.6)"><path d="M.6 0h3.2c1.4 0 2.6 1.2 2.6 2.6c0 1.4-1.2 2.6-2.6 2.6h-3.2c-0.3 0-0.6-0.3-0.6-0.6v-4c0-0.3 .3-0.6 .6-0.6Z" fill="#999" fill-rule="nonzero" transform="translate(3.2,2.6) translate(-3.2,-2.6)"/></g><g transform="translate(123.6,16.3) translate(0,-5.7)"><path d="M0 11.4v-11.4" fill="none" transform="translate(0,5.7) translate(0,-5.7)"/></g><g transform="translate(16.9,45.5) translate(-2.7,-4.5)"><ellipse rx="2.7" ry="4.5" fill="#4d4d4d" transform="translate(2.7,4.5)"/></g><g transform="translate(14.8,45.5) translate(-3.2,-2.6)"><path d="M.6 0h3.2c1.4 0 2.6 1.2 2.6 2.6c0 1.4-1.2 2.6-2.6 2.6h-3.2c-0.3 0-0.6-0.3-0.6-0.6v-4c0-0.3 .3-0.6 .6-0.6Z" fill="#999" fill-rule="nonzero" transform="translate(3.2,2.6) translate(-3.2,-2.6)"/></g><g transform="translate(43,51.6) translate(-1.6,-27.2)"><path d="M1.6 0c.9 0 1.7 1 1.7 2.2v50.1c0 1.2-0.8 2.2-1.8 2.2c-1-0.3-1.6-1.2-1.5-2.2v-50.1c0-1.2 .7-2.2 1.6-2.2Z" fill="#ccc" fill-rule="nonzero" transform="translate(1.6,27.2) translate(-1.6,-27.2)"/></g><g transform="translate(11.6,47.8) translate(-1.6,-27.2)"><path d="M1.6 0c.9 0 1.7 1 1.7 2.2v50.1c0 1.2-0.8 2.2-1.8 2.2c-1-0.3-1.6-1.2-1.5-2.2v-50.1c0-1.2 .7-2.2 1.6-2.2Z" fill="#ccc" fill-rule="nonzero" transform="translate(1.6,27.2) translate(-1.6,-27.2)"/></g><g transform="translate(81.4,51.6) translate(-1.6,-27.2)"><path d="M1.6 0c.9 0 1.7 1 1.7 2.2v50.1c0 1.2-0.8 2.2-1.8 2.2c-1-0.3-1.6-1.2-1.5-2.2v-50.1c0-1.2 .7-2.2 1.6-2.2Z" fill="#ccc" fill-rule="nonzero" transform="translate(1.6,27.2) translate(-1.6,-27.2)"/></g><g transform="translate(113.2,47.5) translate(-1.6,-27.2)"><path d="M1.6 0c.9 0 1.7 1 1.7 2.2v50.1c0 1.2-0.8 2.2-1.8 2.2c-1-0.3-1.6-1.2-1.5-2.2v-50.1c0-1.2 .7-2.2 1.6-2.2Z" fill="#ccc" fill-rule="nonzero" transform="translate(1.6,27.2) translate(-1.6,-27.2)"/></g><g transform="translate(11.6,72.8) translate(-4.4,-3.6)"><path d="M6.5 7.1l-4.8-1.2c-1.1-0.3-1.9-1.8-1.7-3.4c.2-1.6 1.2-2.7 2.3-2.5l4.9 1.2c1.1 .3 1.8 1.8 1.6 3.4c-0.1 1.6-1.2 2.7-2.3 2.5Z" fill="#e6e6e6" fill-rule="nonzero" transform="translate(4.4,3.6) translate(-4.4,-3.6)"/></g><g transform="translate(11.6,23) translate(-4.4,-3.6)"><path d="M6.5 7.1l-4.8-1.2c-1.1-0.3-1.9-1.8-1.7-3.4c.2-1.6 1.2-2.7 2.3-2.5l4.9 1.2c1.1 .3 1.8 1.8 1.6 3.4c-0.1 1.6-1.2 2.7-2.3 2.5Z" fill="#e6e6e6" fill-rule="nonzero" transform="translate(4.4,3.6) translate(-4.4,-3.6)"/></g><g transform="translate(113.2,72.8) translate(-4.4,-3.6)"><path d="M2.3 7.1l4.9-1.2c1.1-0.3 1.8-1.8 1.6-3.4c-0.1-1.6-1.2-2.7-2.3-2.5l-4.8 1.2c-1.1 .3-1.9 1.8-1.7 3.4c.2 1.6 1.2 2.7 2.3 2.5Z" fill="#e6e6e6" fill-rule="nonzero" transform="translate(4.4,3.6) translate(-4.4,-3.6)"/></g><g transform="translate(113.2,23) translate(-4.4,-3.6)"><path d="M2.3 7.1l4.9-1.2c1.1-0.3 1.8-1.8 1.6-3.4c-0.1-1.6-1.2-2.7-2.3-2.5l-4.8 1.2c-1.1 .3-1.9 1.8-1.7 3.4c.2 1.6 1.2 2.7 2.3 2.5Z" fill="#e6e6e6" fill-rule="nonzero" transform="translate(4.4,3.6) translate(-4.4,-3.6)"/></g><g transform="translate(43,26.5) translate(-4.6,-2.8)"><path d="M6.7 5.6l-4.5-0.4c-1.4-0.1-2.3-1.4-2.2-2.7c0 0 0-0.1 0-0.1c0-1.3 1.1-2.4 2.4-2.4c0 0 .1 0 .1 0l4.5 .3c1.3 .2 2.3 1.5 2.1 2.8c0 0 0 0 0 0c0 1.4-1.1 2.5-2.4 2.5c0 0 0 0 0 0Z" fill="#e6e6e6" fill-rule="nonzero" transform="translate(4.6,2.8) translate(-4.6,-2.8)"/></g><g transform="translate(43,77.5) translate(-4.6,-2.8)"><path d="M6.7 5.6l-4.5-0.4c-1.4-0.1-2.3-1.4-2.2-2.7c0 0 0-0.1 0-0.1c0-1.3 1.1-2.4 2.4-2.4c0 0 .1 0 .1 0l4.5 .3c1.3 .2 2.3 1.5 2.1 2.8c0 0 0 0 0 0c0 1.4-1.1 2.5-2.4 2.5c0 0 0 0 0 0Z" fill="#e6e6e6" fill-rule="nonzero" transform="translate(4.6,2.8) translate(-4.6,-2.8)"/></g><g transform="translate(81.4,77.5) translate(-4.6,-2.8)"><path d="M7 5.2l-4.5 .3c-1.3 0-2.5-1.1-2.5-2.4c0-0.2 0-0.3 0-0.4c0-1.2 .9-2.2 2.1-2.4l4.5-0.3c1.4 0 2.5 1.1 2.5 2.5c.1 .1 .1 .2 .1 .3c0 1.2-0.9 2.3-2.2 2.4Z" fill="#e6e6e6" fill-rule="nonzero" transform="translate(4.6,2.8) translate(-4.6,-2.8)"/></g><g transform="translate(81.4,26.2) translate(-4.6,-2.8)"><path d="M7.1 5.2l-4.5 .4c-1.4 0-2.5-1.1-2.6-2.5c0-0.1 0-0.2 0-0.4c0-1.2 .9-2.2 2.1-2.4l4.5-0.3c1.4 0 2.5 1.1 2.5 2.4c.1 .2 .1 .3 .1 .4c0 1.2-0.9 2.3-2.1 2.4Z" fill="#e6e6e6" fill-rule="nonzero" transform="translate(4.6,2.8) translate(-4.6,-2.8)"/></g></g><g id="Guitar" opacity="0" transform="translate(1414.6,493.7) translate(0,0) rotate(40) translate(-79,-205.6)"><g opacity=".8" transform="translate(79,205.6) translate(-79,-205.6)"><g transform="translate(85.8,210.1) translate(-3.4,-0.1)"><path d="M6.7 .1c-2.2 0-3.7 .1-4.3 .2c-0.4-0.1-1.2-0.2-2.4-0.3c1.8 0 4.1 0 6.7 .1Z" fill="#c69c6d" fill-rule="nonzero" transform="translate(3.4,.1) translate(-3.4,-0.1)"/></g><g transform="translate(75.6,310.4) translate(-75.6,-100.8)"><path d="M129.2 56.3c-4.3 9.6-4.4 20.6-0.3 30.2c3.5 8.6 8.4 16.5 14.3 23.6c.1 .1 .2 .2 .2 .2c4.7 5.4 7.4 12.1 7.8 19.2c1 21.6-4 62.9-55.7 70.8c-3 .4-6.1 .8-9.4 1c-1.9 .1-3.9 .2-6 .3c-1.8 0-3.6 0-5.4 0h-0.6c-5.4-0.1-10.9-0.6-16.3-1.4c-1.8-0.2-3.5-0.5-5.1-0.8l-1.4-0.3c-0.3-0.1-0.6-0.1-0.8-0.2c-2.5-0.6-4.8-1.2-7.1-1.9c-41.9-12.9-44.8-50.3-43-70.3c0-0.2 0-0.4 0-0.6c.2-1.7 .5-3.4 1-5c1.4-5.1 4-9.7 7.6-13.5c2-2.1 3.8-4.4 5.6-6.7c3.7-5.1 6.9-10.6 9.6-16.3c4.4-9.5 4.7-20.5 .8-30.2c-11.4-28.6-2.3-42.4 11.5-48.9c9.1-4.2 20.1-5.4 28.5-5.5c1.9 0 3.6 0 5.1 .1h.1c4.1 .1 7 .4 7.9 .5h.1c.6 0 2.1-0.1 4.2-0.2c1.2 .1 2 .2 2.4 .2c.6 0 2.2-0.1 4.3-0.2c7.5 .3 17.4 1.3 26.1 4.7c15.9 6.3 27.9 20.2 14 51.2Z" fill="#ffd042" fill-rule="nonzero" transform="translate(75.6,100.8) translate(-75.6,-100.8)"/></g><g transform="translate(76.3,209.9) translate(-6.1,-0.3)"><path d="M12.3 .4c-2.2 0-3.7 .1-4.3 .2c-0.9-0.1-3.9-0.4-8-0.6c.5 0 1 0 1.6 0c4.5-0.1 8.3 .2 10.7 .4Z" fill="#c69c6d" fill-rule="nonzero" transform="translate(6.1,.3) translate(-6.1,-0.3)"/></g><g transform="translate(119,310.6) translate(-38.9,-100.6)"><path d="M22 199.9c-6.9 1-13.8 1.5-20.8 1.3h-0.5c-0.2 0-0.5 0-0.7 0c5.1-0.1 10.3-0.5 15.4-1.3c51.7-7.9 56.7-49.2 55.6-70.8c-0.4-7-3.1-13.8-7.7-19.1c0-0.1-0.1-0.2-0.2-0.3c-5.9-7-10.8-15-14.3-23.5c-4.1-9.7-4-20.7 .3-30.3c13.8-30.9 1.9-44.9-14-51.1c-8.7-3.5-18.7-4.5-26.1-4.8c7.1-0.2 21 .2 32.8 4.8c15.8 6.2 27.8 20.2 14 51.2c-4.3 9.6-4.4 20.5-0.3 30.2c3.5 8.5 8.3 16.5 14.3 23.5c.1 .1 .1 .2 .2 .3c4.6 5.4 7.3 12.1 7.7 19.2c1.1 21.5-3.9 62.9-55.7 70.7Z" fill="#222a3e" fill-rule="nonzero" transform="translate(38.9,100.6) translate(-38.9,-100.6)"/></g><g transform="translate(78,329.9) translate(-30.1,-8)"><path d="M60.1 3.3l-0.1 5.6c0 1-0.7 1.7-1.7 1.8l-4.2 .1c-2.5 .2-4.8 1-6.9 2.3c-2.1 1.4-6.9 3-17.3 2.8c-10.5-0.2-15.2-2-17.3-3.4c-2-1.4-4.3-2.3-6.7-2.6l-4.2-0.3c-1-0.1-1.7-0.9-1.7-1.8l.1-5.7c0-1.2 1-2.1 2.2-2.1l55.7 1c1.2 .1 2.2 1.1 2.1 2.3Z" fill="#333" fill-rule="nonzero" transform="translate(30.1,8) translate(-30.1,-8)"/></g><g transform="translate(65.9,331.2) translate(-1.1,-1.1)"><ellipse rx="1.1" ry="1.1" fill="none" stroke="#fff" stroke-width="1px" transform="translate(1.1,1.1)"/></g><g transform="translate(70.3,331.7) translate(-1.1,-1.1)"><ellipse rx="1.1" ry="1.1" fill="none" stroke="#fff" stroke-width="1px" transform="translate(1.1,1.1)"/></g><g transform="translate(74.7,331.8) translate(-1.1,-1.1)"><ellipse rx="1.1" ry="1.1" fill="none" stroke="#fff" stroke-width="1px" transform="translate(1.1,1.1)"/></g><g transform="translate(79,331.8) translate(-1.1,-1.1)"><ellipse rx="1.1" ry="1.1" fill="none" stroke="#fff" stroke-width="1px" transform="translate(1.1,1.1)"/></g><g transform="translate(83.4,331.9) translate(-1.1,-1.1)"><ellipse rx="1.1" ry="1.1" fill="none" stroke="#fff" stroke-width="1px" transform="translate(1.1,1.1)"/></g><g transform="translate(87.8,331.6) translate(-1.1,-1.1)"><ellipse rx="1.1" ry="1.1" fill="none" stroke="#fff" stroke-width="1px" transform="translate(1.1,1.1)"/></g><g transform="translate(78.3,161.8) translate(-12.5,-95.6)"><path d="M24.5 191.1l-24.5-0.4l6.3-190.7l18.8 .4l-0.6 190.7Z" fill="#1a1a1a" fill-rule="nonzero" transform="translate(12.6,95.6) translate(-12.6,-95.6)"/></g><g transform="translate(76.6,327.1) rotate(1.1) scale(1,1) translate(-17.3,-1.1)"><path d="M34.7 1.1c0-0.6-0.5-1.1-1.2-1.1h-32.4c-0.6 0-1.1 .5-1.1 1.1c0 .7 .5 1.2 1.1 1.2h32.4c.7 0 1.2-0.5 1.2-1.2Z" fill="#c69c6d" transform="translate(17.3,1.1) translate(-17.3,-1.1)"/></g><g transform="translate(81.2,83.3) translate(-9.7,-0.2)"><path d="M0 0c5.2 .1 13.6 .2 19.3 .3" fill="none" stroke="gray" stroke-width="2px" transform="translate(9.7,.2) translate(-9.7,-0.2)"/></g><g transform="translate(80.9,97) translate(-9.9,-0.2)"><path d="M0 0c5.2 .1 13.9 .3 19.7 .3" fill="none" stroke="gray" stroke-width="2px" transform="translate(9.9,.2) translate(-9.9,-0.2)"/></g><g transform="translate(80.7,109.3) translate(-10.1,-0.2)"><path d="M0 0c5.3 .1 14.2 .3 20.1 .4" fill="none" stroke="gray" stroke-width="2px" transform="translate(10.1,.2) translate(-10.1,-0.2)"/></g><g transform="translate(80.5,121.7) translate(-10.2,-0.2)"><path d="M0 0c5.3 .1 14.6 .3 20.5 .4" fill="none" stroke="gray" stroke-width="2px" transform="translate(10.2,.2) translate(-10.2,-0.2)"/></g><g transform="translate(80.3,133) translate(-10.4,-0.2)"><path d="M0 0c5.3 .1 14.8 .3 20.8 .4" fill="none" stroke="gray" stroke-width="2px" transform="translate(10.4,.2) translate(-10.4,-0.2)"/></g><g transform="translate(80.1,143.6) translate(-10.6,-0.2)"><path d="M0 0c5.3 .1 15.1 .3 21.2 .4" fill="none" stroke="gray" stroke-width="2px" transform="translate(10.6,.2) translate(-10.6,-0.2)"/></g><g transform="translate(79.9,154.2) translate(-10.7,-0.2)"><path d="M0 0c5.7 .1 15.7 .3 21.5 .4" fill="none" stroke="gray" stroke-width="2px" transform="translate(10.7,.2) translate(-10.7,-0.2)"/></g><g transform="translate(79.7,163.4) translate(-10.9,-0.2)"><path d="M0 0c5.7 .1 16 .3 21.8 .4" fill="none" stroke="gray" stroke-width="2px" transform="translate(10.9,.2) translate(-10.9,-0.2)"/></g><g transform="translate(79.5,172.6) translate(-11,-0.2)"><path d="M0 0c5.7 .1 16.3 .3 22.1 .4" fill="none" stroke="gray" stroke-width="2px" transform="translate(11,.2) translate(-11,-0.2)"/></g><g transform="translate(79.4,181.9) translate(-11.2,-0.2)"><path d="M0 0c5.8 .1 16.5 .3 22.3 .4" fill="none" stroke="gray" stroke-width="2px" transform="translate(11.2,.2) translate(-11.2,-0.2)"/></g><g transform="translate(79.3,189.1) translate(-11.3,-0.2)"><path d="M0 0c6.2 .1 17.2 .3 22.6 .4" fill="none" stroke="gray" stroke-width="2px" transform="translate(11.3,.2) translate(-11.3,-0.2)"/></g><g transform="translate(79.1,196.7) translate(-11.4,-0.2)"><path d="M0 0c6.2 .1 17.5 .3 22.8 .4" fill="none" stroke="gray" stroke-width="2px" transform="translate(11.4,.2) translate(-11.4,-0.2)"/></g><g transform="translate(79,204) translate(-11.5,-0.2)"><path d="M0 0c6.2 .1 17.7 .3 23 .4" fill="none" stroke="gray" stroke-width="2px" transform="translate(11.5,.2) translate(-11.5,-0.2)"/></g><g transform="translate(78.8,216.7) translate(-11.7,-0.2)"><path d="M0 0c5.8 .1 17.6 .3 23.4 .4" fill="none" stroke="gray" stroke-width="2px" transform="translate(11.7,.2) translate(-11.7,-0.2)"/></g><g transform="translate(78.6,223) translate(-11.8,-0.2)"><path d="M0 0c5.8 .1 17.8 .3 23.6 .4" fill="none" stroke="gray" stroke-width="2px" transform="translate(11.8,.2) translate(-11.8,-0.2)"/></g><g transform="translate(78.5,228.9) translate(-11.9,-0.2)"><path d="M0 0c5.8 .1 18 .3 23.8 .4" fill="none" stroke="gray" stroke-width="2px" transform="translate(11.9,.2) translate(-11.9,-0.2)"/></g><g transform="translate(78.4,234.1) translate(-12,-0.2)"><path d="M0 0c5.8 .1 18.2 .3 24 .4" fill="none" stroke="gray" stroke-width="2px" transform="translate(12,.2) translate(-12,-0.2)"/></g><g transform="translate(78.4,239.1) translate(-12.1,-0.2)"><path d="M0 0c5.8 .1 18.3 .3 24.1 .4" fill="none" stroke="gray" stroke-width="2px" transform="translate(12.1,.2) translate(-12.1,-0.2)"/></g><g transform="translate(78.7,270.8) translate(-21.6,-21.6)"><ellipse rx="21.6" ry="21.6" fill="#1a1a1a" transform="translate(21.6,21.6)"/></g><g transform="translate(78.3,243.9) translate(-12.1,-0.2)"><path d="M0 0c5.8 .1 18.5 .3 24.2 .4" fill="none" stroke="gray" stroke-width="2px" transform="translate(12.1,.2) translate(-12.1,-0.2)"/></g><g transform="translate(78.9,210.8) translate(-11.6,-0.2)"><path d="M0 0c5.8 .1 17.4 .3 23.2 .4" fill="none" stroke="gray" stroke-width="2px" transform="translate(11.6,.2) translate(-11.6,-0.2)"/></g><g transform="translate(82.6,33.2) translate(-16,-33.2)"><path d="M32 6l-4.1 49.9c-3.1 4.3-3.6 10.6-3.6 10.6l-18.8-0.4c0 0-0.3-6.3-3.2-10.7l-2.3-50c0-0.7 .4-1.4 1.1-1.7c2.6-1.1 9.3-3.7 14.9-3.7c0 0 .1 0 .1 0c.1 0 .1 0 .2 0c5.5 .2 12.1 3 14.7 4.2c.7 .4 1.1 1.1 1 1.8Z" fill="#ffd042" fill-rule="nonzero" transform="translate(16,33.2) translate(-16,-33.2)"/></g><g transform="translate(82.9,8.2) rotate(1.1) scale(1,1) translate(-6.3,-1.6)"><path d="M1.5 0h9.6c.8 0 1.5 .7 1.5 1.5v.2c0 .8-0.7 1.5-1.5 1.5h-9.6c-0.8 0-1.5-0.7-1.5-1.5v-0.2c0-0.8 .7-1.5 1.5-1.5Z" fill="#fff" fill-opacity=".22" fill-rule="nonzero" transform="translate(6.3,1.6) translate(-6.3,-1.6)"/></g><g transform="translate(64,44.2) rotate(-88.9) scale(1,1) translate(-4,-1.9)"><path d="M8 1.4c0-0.8-0.6-1.4-1.4-1.4h-5.2c-0.8 0-1.4 .6-1.4 1.4v1c0 .8 .6 1.4 1.4 1.4h5.2c.8 0 1.4-0.6 1.4-1.4v-1Z" fill="#c69c6d" transform="translate(4,1.9) translate(-4,-1.9)"/></g><g transform="translate(63.3,31.6) rotate(-88.9) scale(1,1) translate(-4,-1.9)"><path d="M8 1.4c0-0.8-0.6-1.4-1.4-1.4h-5.2c-0.8 0-1.4 .6-1.4 1.4v1c0 .8 .6 1.4 1.4 1.4h5.2c.8 0 1.4-0.6 1.4-1.4v-1Z" fill="#c69c6d" transform="translate(4,1.9) translate(-4,-1.9)"/></g><g transform="translate(62.8,18.6) rotate(-88.9) scale(1,1) translate(-4,-1.9)"><path d="M8 1.4c0-0.8-0.6-1.4-1.4-1.4h-5.2c-0.8 0-1.4 .6-1.4 1.4v1c0 .8 .6 1.4 1.4 1.4h5.2c.8 0 1.4-0.6 1.4-1.4v-1Z" fill="#c69c6d" transform="translate(4,1.9) translate(-4,-1.9)"/></g><g transform="translate(66,18.7) translate(-1.3,-1.7)"><path d="M2.7 3.4h-2.7l.1-3.4h2.4l.2 3.4Z" fill="#171000" fill-rule="nonzero" transform="translate(1.3,1.7) translate(-1.3,-1.7)"/></g><g transform="translate(66.5,32.1) translate(-1.4,-1.9)"><path d="M2.8 3.9l-2.8-0.1l.1-3.8h2.5l.2 3.9Z" fill="#171000" fill-rule="nonzero" transform="translate(1.4,1.9) translate(-1.4,-1.9)"/></g><g transform="translate(67.2,44.4) translate(-1.3,-1.7)"><path d="M2.6 3.4h-2.6l.1-3.4h2.4l.1 3.4Z" fill="#171000" fill-rule="nonzero" transform="translate(1.3,1.7) translate(-1.3,-1.7)"/></g><g transform="translate(99.8,45.5) rotate(-88.9) scale(1,1) translate(-4,-1.9)"><path d="M8 1.4c0-0.8-0.7-1.4-1.4-1.4h-5.2c-0.8 0-1.4 .6-1.4 1.4v1c0 .8 .6 1.4 1.4 1.4h5.2c.7 0 1.4-0.6 1.4-1.4v-1Z" fill="#c69c6d" transform="translate(4,1.9) translate(-4,-1.9)"/></g><g transform="translate(101,32.9) rotate(-88.9) scale(1,1) translate(-4,-1.9)"><path d="M8 1.4c0-0.8-0.7-1.4-1.4-1.4h-5.2c-0.8 0-1.4 .6-1.4 1.4v1c0 .8 .6 1.4 1.4 1.4h5.2c.7 0 1.4-0.6 1.4-1.4v-1Z" fill="#c69c6d" transform="translate(4,1.9) translate(-4,-1.9)"/></g><g transform="translate(101.9,19.9) rotate(-88.9) scale(1,1) translate(-4,-1.9)"><path d="M8 1.4c0-0.8-0.7-1.4-1.4-1.4h-5.2c-0.8 0-1.4 .6-1.4 1.4v1c0 .8 .6 1.4 1.4 1.4h5.2c.7 0 1.4-0.6 1.4-1.4v-1Z" fill="#c69c6d" transform="translate(4,1.9) translate(-4,-1.9)"/></g><g transform="translate(98.7,19.9) translate(-1.4,-1.7)"><path d="M2.7 0l-0.1 3.4h-2.6l.3-3.4h2.4Z" fill="#171000" fill-rule="nonzero" transform="translate(1.4,1.7) translate(-1.4,-1.7)"/></g><g transform="translate(97.7,33.2) translate(-1.4,-1.9)"><path d="M2.9 0l-0.1 3.9l-2.8-0.1l.3-3.8h2.6Z" fill="#171000" fill-rule="nonzero" transform="translate(1.4,1.9) translate(-1.4,-1.9)"/></g><g transform="translate(96.6,45.5) translate(-1.3,-1.7)"><path d="M2.6 3.4h-2.6l.3-3.4h2.4l-0.1 3.4Z" fill="#171000" fill-rule="nonzero" transform="translate(1.3,1.7) translate(-1.3,-1.7)"/></g><g transform="translate(70.2,185.8) translate(-4.3,-144.3)"><path d="M0 288.6l8.6-288.6" fill="none" stroke="#fff" stroke-width="1px" transform="translate(4.3,144.3) translate(-4.3,-144.3)"/></g><g transform="translate(73.6,180.4) translate(-3.3,-150.2)"><path d="M0 300.4l6.7-300.4" fill="none" stroke="#fff" stroke-width="1px" transform="translate(3.3,150.2) translate(-3.3,-150.2)"/></g><g transform="translate(77.3,174.4) translate(-2.4,-156.3)"><path d="M0 312.5l4.7-312.5" fill="none" stroke="#fff" stroke-width="1px" transform="translate(2.4,156.3) translate(-2.4,-156.3)"/></g><g transform="translate(80.8,174.5) translate(-1.7,-156.2)"><path d="M0 312.4l3.4-312.4" fill="none" stroke="#fff" stroke-width="1px" transform="translate(1.7,156.2) translate(-1.7,-156.2)"/></g><g transform="translate(84.4,180.6) translate(-0.9,-150.2)"><path d="M0 300.4l1.8-300.4" fill="none" stroke="#fff" stroke-width="1px" transform="translate(.9,150.2) translate(-0.9,-150.2)"/></g><g transform="translate(88,187) translate(-0.1,-143.5)"><path d="M0 286.9l.3-286.9" fill="none" stroke="#fff" stroke-width="1px" transform="translate(.1,143.5) translate(-0.1,-143.5)"/></g><g transform="translate(26.3,372.3) translate(-26.3,-36.7)"><path d="M.4 0l52.3 73.3l-1.4-0.3c-0.3 0-0.6-0.1-0.8-0.2c-2.5-0.5-4.9-1.1-7.1-1.8c-41.9-13-44.8-50.4-43-70.4c0-0.2 0-0.4 0-0.6Z" fill="#a67c52" fill-opacity=".69" fill-rule="nonzero" transform="translate(26.3,36.6) translate(-26.3,-36.6)"/></g><g transform="translate(43.8,360.8) translate(-42.4,-50.4)"><path d="M13.2 0l71.5 100.4c-1.9 .1-3.9 .2-6 .3c-1.7 0-3.6 0-5.4 0h-0.6c-5.4-0.1-10.9-0.6-16.3-1.3l-56.4-79.2c1.4-5 4-9.7 7.6-13.5c2-2.1 3.8-4.4 5.6-6.7Z" fill="#a67c52" fill-opacity=".54" fill-rule="nonzero" transform="translate(42.4,50.4) translate(-42.4,-50.4)"/></g></g></g><g id="_a1" filter="drop-shadow(4px 4px 5px rgba(0,0,0,0.14))" transform="translate(1416.2,503.7) translate(-442.9,-309.4)"><g transform="translate(442.9,309.4) translate(-442.9,-309.4)"><path id="Tracé_399-2" d="M629.1 270.9c-24.2-95.3-108-164.1-206.3-166.9c-51.9-1.4-106.6 15.8-146.4 76.1c-71.2 107.8 4.4 182.3 57 217.7c25.5 17.2 48.4 37.8 68.1 61.2c35.6 42.3 104.1 94.7 185.6 12.5c59-59.5 58.2-137.1 42-200.6Z" fill="#f2f2f2" fill-rule="nonzero" transform="translate(442.9,309.4) skewX(10) skewY(15) translate(-442.9,-309.4)"/></g></g><g transform="translate(1408.4,527.9) translate(-187.8,-237.6)"><g id="Head" transform="translate(196.2,104.2) translate(0,0) translate(-26.1,-38.4)"><g transform="translate(29.7,61.1) translate(-576,-297.1)"><path d="M563.6 287.4c0 0 4.9 11.1-5.3 13.1c-10.2 2.1 12 12.3 12 12.3l17.2-3l8.7-6.7c0 0-17.4-10.4-15.1-18.6c2.3-8.2-17.5 2.9-17.5 2.9Z" fill="#ffb8b8" fill-rule="nonzero" transform="translate(576,297.1) translate(-576,-297.1)"/></g><g transform="translate(29.7,61.1) translate(-576,-297.1)"><path d="M563.6 287.4c0 0 4.9 11.1-5.3 13.1c-10.2 2.1 12 12.3 12 12.3l17.2-3l8.7-6.7c0 0-17.4-10.4-15.1-18.6c2.3-8.2-17.5 2.9-17.5 2.9Z" fill-opacity=".1" fill-rule="nonzero" transform="translate(576,297.1) translate(-576,-297.1)"/></g><g transform="translate(26.1,26.1) translate(-26.1,-26.1)"><ellipse rx="26.1" ry="26.1" fill="#6b2231" transform="translate(26.1,26.1)"/></g><g transform="translate(16.9,-0.6) rotate(-1) translate(-8.5,-8.5)"><ellipse rx="8.5" ry="8.5" fill="#6b2231" transform="translate(8.5,8.5)"/></g><g transform="translate(37.9,0) rotate(-1) translate(-8.5,-8.5)"><ellipse rx="8.5" ry="8.5" fill="#6b2231" transform="translate(8.5,8.5)"/></g><g transform="translate(25.9,38.4) rotate(-1) translate(-19.2,-19.2)"><ellipse rx="19.2" ry="19.2" fill="#ffb8b8" transform="translate(19.2,19.2)"/></g><g transform="translate(25.9,24.9) rotate(-1) translate(-18.1,-10.3)"><rect width="36.1" height="20.7" fill="#6b2231" transform="translate(18.1,10.3) translate(-18.1,-10.3)"/></g></g><g transform="translate(196.7,314.1) translate(-47.8,-42.6)"><g transform="translate(12.3,42.6) translate(-515.5,-599.1)"><path d="M503.2 558.8c0 0 3.8 36.2 2.9 38.8c-0.9 2.6 1.8 44 1.8 44l16.6-3.8c0 0 2.5-21.7 .4-43c0 0 6.1-20.1 .3-31.7c-5.8-11.7-22-4.3-22-4.3Z" fill="#ffb8b8" fill-rule="nonzero" transform="translate(515.5,599.1) translate(-515.5,-599.1)"/></g><g transform="translate(73.5,48.8) translate(-613.6,-614.1)"><path d="M591.6 581.5c0 0 8.4 25 13.7 30.3c0 0 7.7 37.1 15.6 38.6c7.8 1.5 14.8-6.7 14.8-6.7c0 0-9-33.5-14.5-38.8l-6.7-27.4l-22.9 4Z" fill="#ffb8b8" fill-rule="nonzero" transform="translate(613.6,614.1) translate(-613.6,-614.1)"/></g><g transform="translate(13.4,112.4) translate(-518.2,-724.7)"><path d="M528.2 690.2h-20.4l2.3 24.2c0 0 1.5 22.1-0.9 25.6c-2.3 3.5-4.3 19.8 3.8 19.3c8.2-0.6 12-4.7 12-6.4c0-1.8 .8-21.9 2.9-25.4c2-3.5 2-11.4-1.5-12.5c-3.5-1.2 1.8-24.8 1.8-24.8Z" fill="#2f2e41" fill-rule="nonzero" transform="translate(518.2,724.7) translate(-518.2,-724.7)"/></g><g transform="translate(93.7,111.1) translate(-651.7,-721.6)"><path d="M634.4 693.3l11.6 20.7c0 0-2 6.1 .6 10.7c2.6 4.7 3.2 13.4 3.2 16.9c0 3.5 4.1 17 13.1 15.8c9.1-1.2 5.3-12.3 5.3-12.3l-7-27.9l-7.6-31.5l-19.2 7.6Z" fill="#2f2e41" fill-rule="nonzero" transform="translate(651.7,721.6) translate(-651.7,-721.6)"/></g></g><g id="Dress" transform="translate(191,213.7) translate(0,0) translate(-96,-84.9)"><g transform="translate(64.5,23.3) rotate(-1) translate(-514.5,-338.1)"><path d="M525.5 321.8l-4.1-2.6c0 0-19.5 11.1-17.8 16.9c1.8 5.8 3.2 4.1 2.6 9c-0.5 5-3.2 5.3 1.2 6.4c4.4 1.2 5.5-1.7 5.5 2.4c0 4.1 7.3 2.9 7.3 2.9l5.3-35Z" fill="#2f2e41" fill-rule="nonzero" transform="translate(514.5,338.1) translate(-514.5,-338.1)"/><g transform="translate(608.4,378.8) rotate(1) translate(-662.6,-390)"><path d="M648.7 349.7l6.4 39.7l26.5 22.1c0 0 18.4 10.5 9.7 17.2c-8.8 6.7-18.8-11.5-18.8-11.5c0 0-26.6-9.6-29.8-22.1c-3.2-12.6-11-34.6-11-34.6l17-10.8Z" fill="#ffb8b8" fill-rule="nonzero" transform="translate(662.6,390) translate(-662.6,-390)"/></g></g><g transform="translate(133.6,27.2) rotate(-1) translate(-631.1,-344)"><path d="M627 325.6l3.5-1.4c0 0 16 11.9 14.3 23c-1.8 11.1-9.4-0.3-10.5 2.6c-1.2 3-5 3-5.3 7.6c-0.3 4.7 3.5 5.6-0.3 6.4c-3.8 .9-11.4-19.8-11.4-19.8l9.7-18.4Z" fill="#2f2e41" fill-rule="nonzero" transform="translate(631.1,344) translate(-631.1,-344)"/></g><g transform="translate(56.9,68.4) translate(-249.7,-313)"><path d="M257.3 277l-3.2 20.4l-21.3 46.6l20.1 5l13.7-69.7l-9.3-2.3Z" fill="#ffb8b8" fill-rule="nonzero" transform="translate(249.7,313) translate(-249.7,-313)"/></g><g transform="translate(89.8,85) rotate(-1) translate(-502.3,-397.7)"><path d="M545.5 320l-10.9-4.8c-11.4 4.7-24.3 4.4-35.4-1l-15.2 2.9c0 0 0 25.4-2.6 27.4c-2.6 2-5.9 10.5-4.1 15.4c1.7 5 4.7 18.7-0.6 21.3c-5.2 2.6-22.7 10.8-27.7 20.1c-4.9 9.4-33.8 2.7-35 14.6c-1.1 12 18.7 25.7 12 38.2c-6.7 12.5-9.9 15.1 9.6 16.6c19.5 1.5 39.1-13.4 55.4-1.7c16.3 11.6 36.7 15.7 44.6 9c7.9-6.7 17.8-21 30.9-20.7c13.1 .3 23.6-1.8 21.9-10.2c-1.8-8.5 7.2-4.1-1.8-15.2c-9-11-35.3-16-39.1-26.8c-3.7-10.8-20.9-15.1-20.9-15.1c-0.6-0.8-0.9-1.7-0.9-2.7c0-1.7 1-3.3 2.6-4c4.7-2.7 17.2-63.3 17.2-63.3Z" fill="#2f2e41" fill-rule="nonzero" transform="translate(502.3,397.7) translate(-502.3,-397.7)"/></g></g></g><g id="Garland" filter="blur(3px)" transform="translate(1428.4,336.4) translate(-207.8,-46.1)"><g transform="translate(207.8,34.7) translate(-458.8,-125)"><path d="M272.4 159.7c-10.2 0-16.3-0.6-16.4-0.6l.1-1.1c22.5 1.4 45 .1 67.2-4.1c34-6.4 81.3-22.5 112.7-63.3l.3-0.3l.5 .2c28.7 14.1 58.4 26 88.9 35.8c28 8.7 53 13.9 74.2 15.2c26.4 1.7 46.9-2.5 61-12.6l.7 1c-14.4 10.2-35.1 14.5-61.8 12.8c-21.3-1.4-46.3-6.5-74.5-15.3c-30.4-9.7-60-21.6-88.6-35.7c-14 18-32.1 32.7-53.9 43.8c-17.6 8.9-37.5 15.5-59.4 19.5c-16.8 3.1-33.9 4.7-51 4.7Z" fill="#2f2e41" fill-rule="nonzero" transform="translate(458.8,125) translate(-458.8,-125)"/></g><g id="Tracé_403" transform="translate(44.6,79.9) translate(-70,-128.4)"><path d="M60.9 117.6l18.3-1.5l-7.4 24.5l-10.9-23Z" fill="#6c63ff" fill-rule="nonzero" transform="translate(70,128.4) translate(-70,-128.4)"/></g><g id="Tracé_404" transform="translate(80.6,71.9) translate(-133.7,-116.1)"><path d="M127.1 108.7l6.2 17.7l7-20.6l-13.2 2.9Z" fill="#6c63ff" fill-rule="nonzero" transform="translate(133.7,116.1) translate(-133.7,-116.1)"/></g><g id="Tracé_405" transform="translate(137.8,48.4) translate(-230.5,-76.3)"><path d="M221.8 73.1l17.4 12.6l-3.4-18.8l-14 6.2Z" fill="#6c63ff" fill-rule="nonzero" transform="translate(230.5,76.3) translate(-230.5,-76.3)"/></g><g id="Tracé_406" transform="translate(223.3,26.8) translate(-378.8,-37.1)"><path d="M372.3 24.7l2 24.8l11.1-18.1l-13.1-6.7Z" fill="#6c63ff" fill-rule="nonzero" transform="translate(378.8,37.1) translate(-378.8,-37.1)"/></g><g id="Tracé_407" transform="translate(352.8,65.2) translate(-597.4,-102.4)"><path d="M585.4 88.9l13 27l11-27h-24Z" fill="#6c63ff" fill-rule="nonzero" transform="translate(597.4,102.4) translate(-597.4,-102.4)"/></g><g id="Tracé_408" transform="translate(270.8,46.8) translate(-459.5,-70.7)"><path d="M451.7 57.4v26.7l15.7-21.7l-15.7-5Z" fill="#6c63ff" fill-rule="nonzero" transform="translate(459.5,70.7) translate(-459.5,-70.7)"/></g></g><g id="Drums_2" opacity="0" transform="translate(1599.1,565.4) rotate(-33) scale(1,1) translate(-76.2,-50.8)"><path d="M152.4 14.1c0 2-2.2 3.8-6.2 5.5c-82.3-23.6-140 0-140 0c-4-1.7-6.2-3.5-6.2-5.5c0-7.8 34.1-14.1 76.2-14.1c42.1 0 76.2 6.3 76.2 14.1Z" fill="#1a1a1a" fill-rule="nonzero" transform="translate(76.2,9.8) translate(-76.2,-9.8)"/><g transform="translate(76.2,18.6) translate(-70,-9.5)"><path id="_a2" d="M140.1 10.5c-0.8 .4-1.7 .7-2.6 1c-6.2 2.2-15.5 4-26.7 5.4c-13.6 1.5-27.2 2.2-40.8 2.1c-14.4 .1-28.9-0.7-43.2-2.4c-10.1-1.3-18.5-3.1-24.3-5.1c-0.9-0.3-1.7-0.7-2.5-1c0 0 57.7-23.6 140.1 0Z" fill="#e6e6e6" fill-rule="nonzero" transform="translate(70,9.5) translate(-70,-9.5)"/></g><g transform="translate(76.2,27.7) translate(-76.2,-13.6)"><path d="M152.4 0v13.1c0 1.9-2.2 3.8-6.2 5.5c-11.6 5-38.6 8.6-70 8.6c-31.4 0-58.4-3.6-70-8.6c-4-1.7-6.2-3.5-6.2-5.5v-13.1c0 2 2.2 3.9 6.2 5.6c.7 .3 1.6 .6 2.5 .9c5.8 2.1 14.1 3.8 24.3 5.1c14.3 1.7 28.8 2.5 43.2 2.5c13.6 0 27.2-0.7 40.7-2.2c11.3-1.3 20.6-3.2 26.8-5.4c.9-0.3 1.8-0.6 2.5-0.9c4-1.7 6.2-3.6 6.2-5.6Z" fill="#333" fill-rule="nonzero" transform="translate(76.2,13.6) translate(-76.2,-13.6)"/></g><g transform="translate(76.2,88) translate(-76.2,-13.6)"><path d="M152.4 0v13.1c0 1.9-2.2 3.8-6.2 5.5c-11.6 5-38.6 8.6-70 8.6c-31.4 0-58.4-3.6-70-8.6c-4-1.7-6.2-3.5-6.2-5.5v-13.1c0 2 2.2 3.9 6.2 5.6c.7 .3 1.6 .6 2.5 .9c5.8 2.1 14.1 3.8 24.3 5.1c14.3 1.7 28.8 2.5 43.2 2.5c13.6 0 27.2-0.7 40.7-2.2c11.3-1.3 20.6-3.2 26.8-5.4c.9-0.3 1.8-0.6 2.5-0.9c4-1.7 6.2-3.6 6.2-5.6Z" fill="#333" fill-rule="nonzero" transform="translate(76.2,13.6) translate(-76.2,-13.6)"/></g><g transform="translate(76.2,57.8) translate(-76.2,-30.7)"><path d="M152.4 0v47.3c0 1.9-2.2 3.8-6.2 5.5c-11.6 5-38.6 8.6-70 8.6c-31.4 0-58.4-3.6-70-8.6c-4-1.7-6.2-3.5-6.2-5.5v-47.3c0 2 2.2 3.9 6.2 5.6c11.6 5 38.6 8.5 70 8.5c31.4 0 58.4-3.5 70-8.5c4-1.7 6.2-3.6 6.2-5.6Z" fill="#ce3b1d" fill-rule="nonzero" transform="translate(76.2,30.7) translate(-76.2,-30.7)"/></g><g transform="translate(0,27.5) translate(0,-0.4)"><path d="M0 .8v-0.8" fill="none" transform="translate(0,.4) translate(0,-0.4)"/></g><g transform="translate(0,20.1) translate(0,-7)"><path d="M0 0v14.1" fill="none" transform="translate(0,7) translate(0,-7)"/></g><g transform="translate(53.1,62.6) translate(-6.3,-6.3)"><ellipse rx="6.3" ry="6.3" fill="#4d4d4d" transform="translate(6.3,6.3)"/></g><g transform="translate(100.3,62.6) translate(-6.3,-6.3)"><ellipse rx="6.3" ry="6.3" fill="#4d4d4d" transform="translate(6.3,6.3)"/></g><g transform="translate(53.1,62.6) translate(-3.7,-3.7)"><ellipse rx="3.7" ry="3.7" fill="#999" transform="translate(3.7,3.7)"/></g><g transform="translate(100.3,62.6) translate(-3.7,-3.7)"><ellipse rx="3.7" ry="3.7" fill="#999" transform="translate(3.7,3.7)"/></g><g transform="translate(133,56.1) translate(-3.3,-5.6)"><ellipse rx="3.3" ry="5.6" fill="#4d4d4d" transform="translate(3.3,5.6)"/></g><g transform="translate(135.6,56.1) rotate(180) translate(-4,-3.2)"><path d="M.8 0h3.9c1.8 0 3.2 1.5 3.2 3.2c0 0 0 0 0 0c0 1.8-1.4 3.2-3.2 3.2h-3.9c-0.5 0-0.8-0.3-0.8-0.7v-4.9c0-0.5 .3-0.8 .8-0.8Z" fill="#999" fill-rule="nonzero" transform="translate(4,3.2) translate(-4,-3.2)"/></g><g transform="translate(152.4,20.1) translate(0,-7)"><path d="M0 14.1v-14.1" fill="none" transform="translate(0,7) translate(0,-7)"/></g><g transform="translate(20.9,56.1) translate(-3.3,-5.6)"><ellipse rx="3.3" ry="5.6" fill="#4d4d4d" transform="translate(3.3,5.6)"/></g><g transform="translate(18.3,56.1) translate(-4,-3.2)"><path d="M.8 0h3.9c1.8 0 3.2 1.5 3.2 3.2c0 0 0 0 0 0c0 1.8-1.4 3.2-3.2 3.2h-3.9c-0.5 0-0.8-0.3-0.8-0.7v-4.9c0-0.5 .3-0.8 .8-0.8Z" fill="#999" fill-rule="nonzero" transform="translate(4,3.2) translate(-4,-3.2)"/></g><g transform="translate(53.1,63.6) translate(-2,-33.6)"><path d="M2 0c1.1 0 2 1.2 2 2.7v61.8c0 1.5-1 2.8-2.1 2.7c-1.1-0.1-1.9-1.3-1.9-2.7v-61.8c0-1.5 .9-2.7 2-2.7Z" fill="#ccc" fill-rule="nonzero" transform="translate(2,33.6) translate(-2,-33.6)"/></g><g transform="translate(14.3,59) translate(-2,-33.6)"><path d="M2 0c1.1 0 2 1.2 2 2.7v61.8c0 1.5-1 2.8-2.1 2.7c-1.1-0.1-1.9-1.3-1.9-2.7v-61.8c0-1.5 .9-2.7 2-2.7Z" fill="#ccc" fill-rule="nonzero" transform="translate(2,33.6) translate(-2,-33.6)"/></g><g transform="translate(100.3,63.6) translate(-2,-33.6)"><path d="M2 0c1.1 0 2 1.2 2 2.7v61.8c0 1.5-1 2.8-2.1 2.7c-1.1-0.1-1.9-1.3-1.9-2.7v-61.8c0-1.5 .9-2.7 2-2.7Z" fill="#ccc" fill-rule="nonzero" transform="translate(2,33.6) translate(-2,-33.6)"/></g><g transform="translate(139.6,58.5) translate(-2,-33.6)"><path d="M2 0c1.1 0 2 1.2 2 2.7v61.8c0 1.5-1 2.8-2.1 2.7c-1.1-0.1-1.9-1.3-1.9-2.7v-61.8c0-1.5 .9-2.7 2-2.7Z" fill="#ccc" fill-rule="nonzero" transform="translate(2,33.6) translate(-2,-33.6)"/></g><g transform="translate(14.3,89.7) translate(-5.5,-4.4)"><path d="M8.1 8.7l-6-1.4c-1.4-0.3-2.3-2.2-2.1-4.2c.3-2 1.5-3.4 2.9-3.1l6 1.5c1.3 .3 2.2 2.2 2 4.2c-0.2 2-1.5 3.3-2.8 3Z" fill="#e6e6e6" fill-rule="nonzero" transform="translate(5.5,4.4) translate(-5.5,-4.4)"/></g><g transform="translate(14.3,28.4) translate(-5.5,-4.4)"><path d="M8.1 8.7l-6-1.4c-1.4-0.3-2.3-2.2-2.1-4.2c.3-2 1.5-3.4 2.9-3.1l6 1.5c1.3 .3 2.2 2.2 2 4.2c-0.2 2-1.5 3.3-2.8 3Z" fill="#e6e6e6" fill-rule="nonzero" transform="translate(5.5,4.4) translate(-5.5,-4.4)"/></g><g transform="translate(139.6,89.7) translate(-5.5,-4.4)"><path d="M2.9 8.7l6-1.4c1.3-0.3 2.2-2.2 2-4.2c-0.2-2-1.5-3.4-2.8-3.1l-6 1.5c-1.4 .3-2.3 2.2-2.1 4.2c.2 2 1.5 3.3 2.9 3Z" fill="#e6e6e6" fill-rule="nonzero" transform="translate(5.5,4.4) translate(-5.5,-4.4)"/></g><g transform="translate(139.6,28.4) translate(-5.5,-4.4)"><path d="M2.9 8.7l6-1.4c1.3-0.3 2.2-2.2 2-4.2c-0.2-2-1.5-3.4-2.8-3.1l-6 1.5c-1.4 .3-2.3 2.2-2.1 4.2c.2 2 1.5 3.3 2.9 3Z" fill="#e6e6e6" fill-rule="nonzero" transform="translate(5.5,4.4) translate(-5.5,-4.4)"/></g><g transform="translate(53.1,32.7) translate(-5.6,-3.4)"><path d="M8.2 6.9l-5.5-0.4c-1.7-0.3-2.9-1.8-2.7-3.5c0 0 0 0 0 0c0-1.6 1.4-3 3-3c0 0 0 0 0 0l5.6 .4c1.7 .2 2.9 1.8 2.7 3.4c0 0 0 .1 0 .1c0 1.6-1.4 3-3 3c0 0 0 0-0.1 0Z" fill="#e6e6e6" fill-rule="nonzero" transform="translate(5.6,3.4) translate(-5.6,-3.4)"/></g><g transform="translate(53.1,95.6) translate(-5.6,-3.4)"><path d="M8.2 6.9l-5.5-0.4c-1.7-0.3-2.9-1.8-2.7-3.5c0 0 0 0 0 0c0-1.6 1.4-3 3-3c0 0 0 0 0 0l5.6 .4c1.7 .2 2.9 1.8 2.7 3.4c0 0 0 .1 0 .1c0 1.6-1.4 3-3 3c0 0 0 0-0.1 0Z" fill="#e6e6e6" fill-rule="nonzero" transform="translate(5.6,3.4) translate(-5.6,-3.4)"/></g><g transform="translate(100.3,95.6) translate(-5.6,-3.4)"><path d="M8.7 6.5l-5.6 .3c-1.7 0-3-1.3-3.1-3c0-0.2 0-0.3 0-0.5c0-1.5 1.1-2.7 2.6-2.9l5.6-0.4c1.6 0 3 1.4 3.1 3c0 .2 0 .3 0 .5c0 1.5-1.1 2.8-2.6 3Z" fill="#e6e6e6" fill-rule="nonzero" transform="translate(5.6,3.4) translate(-5.6,-3.4)"/></g><g transform="translate(100.3,32.3) translate(-5.6,-3.4)"><path d="M8.7 6.4l-5.6 .4c-1.6 .1-3-1.3-3.1-3c0-0.1 0-0.3 0-0.4c0-1.5 1.1-2.8 2.6-3l5.5-0.4c1.7 0 3.1 1.3 3.2 3c0 .2 0 .3 0 .5c0 1.5-1.1 2.7-2.6 2.9Z" fill="#e6e6e6" fill-rule="nonzero" transform="translate(5.6,3.4) translate(-5.6,-3.4)"/></g></g><g id="Stick" opacity="0" transform="translate(1540,490) translate(0,0) rotate(62) scale(1,1) translate(-2.5,-57.6)"><g transform="translate(2.5,61.2) translate(-2.5,-53.9)"><path d="M5 105.5c0 1.3-1.1 2.3-2.4 2.3c-0.1 0-0.1 0-0.1 0c0 0-0.1 0-0.1 0c-1.3 0-2.4-1-2.4-2.3l1.1-105.5c0 0 0 0 0 0c0 .1 .1 .2 .2 .3c.1 .1 0 0 0 0c.3 .3 .7 .4 1.2 .4c.4 0 .9-0.1 1.2-0.4c0 0 .1-0.1 .1-0.1c0-0.1 .1-0.1 .1-0.2c0 0 0 0 0 0l1.1 105.5Z" fill="#c69c6d" fill-rule="nonzero" transform="translate(2.5,53.9) translate(-2.5,-53.9)"/></g><g transform="translate(2.5,5.2) translate(-1.4,-5.2)"><path d="M2.8 8.5c0 .2 0 .4-0.1 .5c0 .1 0 .2-0.1 .3c-0.2 .6-0.7 1-1.2 1c-0.3 0-0.8-0.4-1.1-1.1c-0.1-0.2-0.2-0.5-0.2-0.7c-0.1-0.4-0.1-0.9-0.1-1.3l.4-4.6c0-1.4 .4-2.6 1-2.6c.3 0 .6 .3 .8 .8c.2 .5 .3 1.2 .3 1.8l.4 4.7c0 .4 0 .8-0.1 1.2Z" fill="#c69c6d" fill-rule="nonzero" transform="translate(1.4,5.2) translate(-1.4,-5.2)"/></g><g transform="translate(2.5,29.2) translate(-1.8,-16.1)"><path d="M.3 2.5l1.4-2.1c.2-0.2 .4-0.4 .7-0.4c.5 0 1 .4 1 .9l.3 30.3c0 0 0 0 0 .1c0 .5-0.5 .9-1 .9c-0.2 0-0.5-0.2-0.7-0.4l-2-2.6l.3-26.7Z" fill="#bf9162" fill-rule="nonzero" transform="translate(1.8,16.1) translate(-1.8,-16.1)"/></g></g></g><script><![CDATA[/*
 KeyshapeJS v1.1.1 (c) 2018-2021 Pixofield Ltd | pixofield.com/keyshapejs/mit-license */
window.KeyshapeJS=function(){function t(a){return"undefined"!==typeof a}function x(a,b){return a&&0==a.indexOf(b)}function R(a){var b={},c;for(c in a)b[c]=a[c];return b}function H(a){if(!isFinite(a))throw Error("Non-finite value");}function S(a){if(14>=a)return 16;var b=T[a];b||(b=t(da[a])?0|(a.toLowerCase().indexOf("color")==a.length-5?48:0):1);return b}function K(a){return 0<=a?Math.pow(a,1/3):-Math.pow(-a,1/3)}function ea(a,b,c,d){if(0==a)return 0==b?b=-d/c:(a=Math.sqrt(c*c-4*b*d),d=(-c+a)/(2*
b),0<=d&&1>=d?b=d:(d=(-c-a)/(2*b),b=0<=d&&1>=d?d:0)),b;var e=c/a-b*b/(a*a)/3;c=b*b*b/(a*a*a)/13.5-b*c/(a*a)/3+d/a;var n=c*c/4+e*e*e/27;b=-b/(3*a);if(0>=n){if(0==e&&0==c)return-K(d/a);a=Math.sqrt(c*c/4-n);d=Math.acos(-c/2/a);c=Math.cos(d/3);d=Math.sqrt(3)*Math.sin(d/3);a=K(a);e=2*a*c+b;if(0<=e&&1>=e)return e;e=-a*(c+d)+b;if(0<=e&&1>=e)return e;e=a*(d-c)+b;if(0<=e&&1>=e)return e}else{a=K(-c/2+Math.sqrt(n));c=K(-c/2-Math.sqrt(n));d=a+c+b;if(0<=d&&1>=d)return d;d=-(a+c)/2+b;if(0<=d&&1>=d)return d}return 0}
function fa(a,b){if(48==a&&"number"===typeof b)return"rgba("+(b>>>24)+","+(b>>>16&255)+","+(b>>>8&255)+","+(b&255)/255+")";if(64==a)return b=b.map(function(a){return a+"px"}),b.join(",");if(96==a){a="";for(var c=b.length,d=0;d<c;d+=2)a+=b[d],a+=b[d+1].join(",");return a}if(80==a){if(0==b[0])return"none";a="";c=b.length;for(d=0;d<c;)a+=U[b[d]],1==b[d]?a+="("+b[d+1]+") ":5==b[d]?(a+="("+b[d+1]+"px "+b[d+2]+"px "+b[d+3]+"px rgba("+(b[d+4]>>>24)+","+(b[d+4]>>16&255)+","+(b[d+4]>>8&255)+","+(b[d+4]&255)/
255+")) ",d+=3):a=2==b[d]?a+("("+b[d+1]+"px) "):7==b[d]?a+("("+b[d+1]+"deg) "):a+("("+(0>b[d+1]?0:b[d+1])+") "),d+=2;return a}return 32==a?b+"px":b}function y(a){return 0>=a?0:255<=a?255:a}function ha(a,b,c,d){if(16==a||32==a)return(c-b)*d+b;if(0==a)return.5>d?b:c;if(48==a){if("number"===typeof b&&"number"===typeof c){var e=1-d;return(y(e*(b>>>24)+d*(c>>>24))<<24|y(e*(b>>>16&255)+d*(c>>>16&255))<<16|y(e*(b>>>8&255)+d*(c>>>8&255))<<8|y(e*(b&255)+d*(c&255)))>>>0}return.5>d?b:c}if(64==a){0==b.length&&
(b=[0]);0==c.length&&(c=[0]);var n=b.length;b.length!=c.length&&(n=b.length*c.length);var q=[];for(a=0;a<n;++a){var h=b[a%b.length];var g=(c[a%c.length]-h)*d+h;0>g&&(g=0);q.push(g)}return q}if(96==a){if(b.length!=c.length)return.5>d?b:c;n=b.length;q=[];for(a=0;a<n;a+=2){if(b[a]!==c[a])return.5>d?b:c;q[a]=b[a];q[a+1]=[];for(h=0;h<b[a+1].length;++h)q[a+1].push((c[a+1][h]-b[a+1][h])*d+b[a+1][h])}return q}if(80==a){n=b.length;if(n!=c.length)return.5>d?b:c;q=[];for(a=0;a<n;){if(b[a]!=c[a]||1==b[a])return.5>
d?b:c;q[a]=b[a];q[a+1]=(c[a+1]-b[a+1])*d+b[a+1];if(5==b[a]){q[a+2]=(c[a+2]-b[a+2])*d+b[a+2];q[a+3]=(c[a+3]-b[a+3])*d+b[a+3];e=1-d;var f=b[a+4],l=c[a+4];g=e*(f>>>24)+d*(l>>>24);var m=e*(f>>16&255)+d*(l>>16&255);h=e*(f>>8&255)+d*(l>>8&255);e=e*(f&255)+d*(l&255);q[a+4]=(y(m)<<16|y(h)<<8|y(e))+16777216*(y(g)|0);a+=3}a+=2}return q}return 0}function V(a,b){a:{var c=a+b[2];var d=b[4].length;for(var e=0;e<d;++e)if(c<b[4][e]){c=e;break a}c=d-1}d=b[2];e=b[4][c-1]-d;a=(a-e)/(b[4][c]-d-e);if(b[6]&&b[6].length>
c-1)if(d=b[6][c-1],1==d[0])if(0>=a)a=0;else if(1<=a)a=1;else{e=d[1];var n=d[3];a=ea(3*e-3*n+1,-6*e+3*n,3*e,-a);a=3*a*(1-a)*(1-a)*d[2]+3*a*a*(1-a)*d[4]+a*a*a}else 2==d[0]?(d=d[1],a=Math.ceil(a*d)/d):3==d[0]&&(d=d[1],a=Math.floor(a*d)/d);return ha(b[1]&240,b[5][c-1],b[5][c],a)}function L(){u||(v=(new Date).getTime()+W)}function O(a){if(a||!E){for(var b=!1,c=0;c<w.length;++c)w[c].J(a)&&(b=!0);if(a)for(;0<I.length;)if(a=I.shift(),c=a[0],1==a[1])c.onfinish&&(c.onfinish(),b=!0),c.I();else if(2==a[1]&&c.onloop)c.onloop();
return b}}function X(){L();O(!0)&&!u?(E=!0,M(X)):E=!1}function N(){E||(E=!0,M(X))}function Y(a,b){var c=[];a.split(b).forEach(function(a){c.push(parseFloat(a))});return c}function A(a){-1==a.indexOf(",")&&(a=a.replace(" ",","));return Y(a,",")}function Z(a){a._ks||(a._ks={});if(!a._ks.transform){for(var b=a._ks.transform=[],c=0;14>=c;++c)b[c]=0;b[10]=1;b[11]=1;if(a=a.getAttribute("transform")){a=a.trim().split(") ");for(c=a.length-2;0<=c;--c)if(x(a[c],"translate(")){for(var d=0;d<c;d++)a.shift();
break}c=a.shift();x(c,"translate(")&&(c=A(c.substring(10)),b[1]=c[0],b[2]=t(c[1])?c[1]:0,c=a.shift());x(c,"rotate(")&&(c=A(c.substring(7)),b[6]=c[0],c=a.shift());x(c,"skewX(")&&(c=A(c.substring(6)),b[7]=c[0],c=a.shift());x(c,"skewY(")&&(c=A(c.substring(6)),b[8]=c[0],c=a.shift());x(c,"scale(")&&(c=A(c.substring(6)),b[10]=c[0],b[11]=t(c[1])?c[1]:c[0],c=a.shift());x(c,"translate(")&&(c=A(c.substring(10)),b[13]=c[0],b[14]=t(c[1])?c[1]:0)}}}function aa(a){this.h=a;this.A=[];this.C=[];this.v=0;this.s=this.a=
this.c=null;this.i=this.f=this.g=0;this.b=1;this.j=this.F=this.o=!1}function J(a,b,c){b=a[b];void 0===b&&(b=a[c]);return b}function ia(a){return Array.isArray(a)?a:x(a,"cubic-bezier(")?(a=a.substring(13,a.length-1).split(","),[1,parseFloat(a[0]),parseFloat(a[1]),parseFloat(a[2]),parseFloat(a[3])]):x(a,"steps(")?(a=a.substring(6,a.length-1).split(","),[a[1]&&"start"==a[1].trim()?2:3,parseFloat(a[0])]):[0]}function ja(a){a=a.trim();return x(a,"#")?(parseInt(a.substring(1),16)<<8)+255:x(a,"rgba(")?(a=
a.substring(5,a.length-1),a=a.split(","),(parseInt(a[0],10)<<24)+(parseInt(a[1],10)<<16)+(parseInt(a[2],10)<<8)+255*parseFloat(a[3])<<0):a}function ba(a){!1===a.j&&(w.push(a),a.j=!0,!1!==a.h.autoplay&&a.play());return this}function P(a){if(!0===a.j){a._cancel();var b=w.indexOf(a);-1<b&&w.splice(b,1);b=I.indexOf(a);-1<b&&I.splice(b,1);a.j=!1}return this}var Q=Error("Not in timeline list"),ca="mpath posX posY    rotate skewX skewY  scaleX scaleY  anchorX anchorY".split(" "),ka=" translate translate    rotate skewX skewY  scale scale  translate translate".split(" "),
U="none url blur brightness contrast drop-shadow grayscale hue-rotate invert opacity saturate sepia".split(" "),M=window.requestAnimationFrame||window.webkitRequestAnimationFrame||window.mozRequestAnimationFrame||window.oRequestAnimationFrame||window.msRequestAnimationFrame||null;M||(M=function(a){window.setTimeout(a,16)});var la=navigator.vendor.match(/apple/i),T={d:97,fill:48,fillOpacity:16,filter:80,height:33,opacity:16,offsetDistance:33,stroke:48,strokeDasharray:64,strokeDashoffset:32,strokeOpacity:16,
strokeWidth:32,transform:1,width:33},da=window.getComputedStyle(document.documentElement),E=!1,v=(new Date).getTime(),u,W=0,w=[],I=[];aa.prototype={B:function(a){var b=0;if(null!==this.c){var c=this.l();0<this.b&&null!==c&&c>=this.f?this.i?(this.c=v-this.g/this.b,this.i--,b=2):(b=1,a?this.a=c:this.a=this.s?Math.max(this.s,this.f):this.f):0>this.b&&null!==c&&c<=this.g?this.i&&Infinity!=this.f?(this.c=v-this.f/this.b,this.i--,b=2):(this.i=0,b=1,a?this.a=c:this.a=this.s?Math.min(this.s,this.g):this.g):
null!==c&&0!=this.b&&(a&&null!==this.a&&(this.c=v-this.a/this.b),this.a=null)}this.s=this.l();return b},J:function(a){a&&(this.o&&(this.o=!1,null===this.c&&(0!=this.b&&null!==this.a?(this.c=v-this.a/this.b,this.a=null):this.c=v)),null===this.a&&null!==this.c&&(a=this.B(!1),0!=a&&I.push([this,a])));a=this.l();if(null===a)return!1;for(var b=this.A,c=this.C,d=0;d<b.length;++d){for(var e=b[d],n=!1,q=0;q<c[d].length;++q){var h=c[d][q],g=h[0];if(null!==g){var f=h[2];var l=h[4].length,m=h[4][l-1]-f;f=0==
m?h[5][l-1]:a<=f?h[5][0]:a>=f+h[3]?0==h[3]%m?h[5][l-1]:V(h[3]%m,h):V((a-f)%m,h);0==g?(e._ks.mpath=h[8],e._ks.transform[g]=f,n=!0):14>=g?(e._ks.transform[g]=f,n=!0):(f=fa(h[1]&240,f),h[1]&1?e.setAttribute(g,f):e.style[g]=f)}}if(n){n=e;Z(n);q=n._ks.transform;h="";if(g=n._ks.mpath)l=q[0],0>l&&(l=0),100<l&&(l=100),l=l*g[2]/100,f=g[1].getPointAtLength(l),h="translate("+f.x+","+f.y+") ",g[0]&&(.5>l?(l=f,f=g[1].getPointAtLength(.5)):l=g[1].getPointAtLength(l-.5),h+="rotate("+180*Math.atan2(f.y-l.y,f.x-l.x)/
Math.PI+") ");for(g=1;g<q.length;++g)f=q[g],f!=(10==g||11==g?1:0)&&(h+=" "+ka[g]+"(",h=2>=g?h+(1==g?f+",0":"0,"+f):13<=g?h+(13==g?f+",0":"0,"+f):10<=g?h+(10==g?f+",1":"1,"+f):h+f,h+=")");n.setAttribute("transform",h)}la&&e.setAttribute("opacity",e.getAttribute("opacity"))}return"running"==this.m()},I:function(){!1!==this.h.autoremove&&"finished"==this.m()&&P(this)},D:function(){if(!this.F){this.F=!0;for(var a=this.A,b=this.C,c=0;c<a.length;++c)for(var d=a[c],e=0;e<b[c].length;++e)14>=b[c][e][0]&&
Z(d)}},u:function(a){if("number"==typeof a)return a;if(!t(this.h.markers)||!t(this.h.markers[a]))throw Error("Invalid marker: "+a);return+this.h.markers[a]},play:function(a){t(a)&&null!==a&&(a=this.u(a),H(a),0>this.b&&a<this.g&&(a=this.g),0<this.b&&a>this.f&&(a=this.f),this.w(a,!0));if(!this.j)throw Q;a=this.l();if(0<this.b&&(null===a||a>=this.f))this.a=this.g;else if(0>this.b&&(null===a||a<=this.g)){if(Infinity==this.f)throw Error("Cannot seek to Infinity");this.a=this.f}else 0==this.b&&null===a&&
(this.a=this.g);if(null===this.a)return this;this.c=null;this.o=!0;this.D();N();return this},pause:function(a){if(!this.j)throw Q;t(a)&&(a=this.u(a),H(a));if("paused"!=this.m()){L();var b=this.l();if(null===b)if(0<=this.b)this.a=this.g;else{if(Infinity==this.f)throw Error("Cannot seek to Infinity");this.a=this.f}null!==this.c&&null===this.a&&(this.a=b);this.c=null;this.o=!1;this.B(!1);this.D();N()}t(a)&&this.w(a,!0);return this},range:function(a,b){if(0==arguments.length)return{"in":this.g,out:this.f};
var c=this.u(a),d=this.v;t(b)&&(d=this.u(b));H(c);if(0>c||0>d||c>=d||isNaN(d))throw Error("Invalid range");var e=this.m();this.g=c;this.f=d;"finished"==e&&"running"==this.m()&&this.play();return this},loop:function(a){if(!t(a))return{count:this.i};this.i=!0===a?Infinity:Math.floor(a);if(0>this.i||isNaN(this.i))this.i=0;return this},l:function(){return null!==this.a?this.a:null===this.c?null:(v-this.c)*this.b},w:function(a,b){b&&L();null!==a&&(this.D(),null!==this.a||null===this.c||0==this.b?(this.a=
a,O(!1)):this.c=v-a/this.b,this.j||(this.c=null),this.s=null,this.B(!0),N())},G:function(){return this.l()},time:function(a){if(t(a)){if(!this.j)throw Q;a=this.u(a);H(a);this.w(a,!0);return this}return this.G()},m:function(){var a=this.l();return this.o?"running":null===a?"idle":null===this.c?"paused":0<this.b&&a>=this.f||0>this.b&&a<=this.g?"finished":"running"},state:function(){return this.m()},duration:function(){return this.v},H:function(a){H(a);L();var b=this.l();this.b=a;null!==b&&this.w(b,
!1)},rate:function(a){return t(a)?(this.H(a),this):this.b},markers:function(a){return t(a)?(this.h.markers=R(a),this):t(this.h.markers)?this.h.markers:{}},marker:function(a){return t(this.h.markers)?this.h.markers[a]:void 0},_cancel:function(){if(!this.j||"idle"==this.m())return this;this.c=this.a=null;this.o=!1;return this}};return{version:"1.1.1",animate:function(){var a={};1==arguments.length%2&&(a=R(arguments[arguments.length-1]));a=new aa(a);for(var b=arguments,c=0,d=0;d<b.length-1;d+=2){var e=
b[d];var n=e instanceof Element?e:document.getElementById(e.substring(1));if(!n)throw Error("Invalid target: "+e);e=n;n=b[d+1];e._ks||(e._ks={});for(var q=[],h=0;h<n.length;++h){var g=n[h],f=J(g,"p","property");if("string"!=typeof f||-1!=f.indexOf("-")||""===f||!(0<T[f]||0<=ca.indexOf(f)))throw Error("Invalid property: "+f);var l=ca.indexOf(f);""!==f&&0<=l&&(f=l);l=S(f);var m=J(g,"t","times");if(!m||2>m.length)throw Error("Not enough times");m=m.slice();if(!isFinite(m[0])||0>m[0])throw Error("Invalid time: "+
m[0]);for(var B=1;B<m.length;++B)if(!isFinite(m[B])||0>m[B]||m[B]<m[B-1])throw Error("Invalid time: "+m[B]);B=m[0];var v=m[m.length-1]-B,y=g.iterations||0;1>y&&(y=1);v*=y;c<v+B&&(c=v+B);var u=J(g,"v","values");if(!u||u.length!=m.length)throw Error("Values do not match times");u=u.slice();for(var C=f,k=u,w=S(C)&240,p=0;p<k.length;++p)if(96==w){for(var G=k[p].substring(6,k[p].length-2).match(/[A-DF-Za-df-z][-+0-9eE., ]*/ig),A=[],r=0;r<G.length;++r){A.push(G[r][0]);for(var z=1<G[r].trim().length?G[r].substring(1).split(","):
[],F=0;F<z.length;++F)z[F]=parseFloat(z[F]);A.push(z)}k[p]=A}else if(48==w)x(k[p],"#")?(G=9==k[p].length,k[p]=parseInt(k[p].substring(1),16),G||(k[p]=256*k[p]|255)):x(k[p],"url(")||"none"==k[p]||(console.warn("unsupported color: "+k[p]),k[p]=0);else if(80==w){G=k;A=p;r=k[p];if("none"==r)r=[0];else{z=[];for(var D=r.indexOf("(");0<D;)if(F=U.indexOf(r.substring(0,D)),0<=F){z.push(F);var E=r.indexOf(") ");0>E&&(E=r.length-1);D=r.substring(D+1,E).split(" ");5==F?(z.push(parseFloat(D[0])),z.push(parseFloat(D[1])),
z.push(parseFloat(D[2])),z.push(ja(D[3]))):1==F?z.push(D[0]):z.push(parseFloat(D[0]));r=r.substring(E+1).trim();D=r.indexOf("(")}else break;r=z}G[A]=r}else 64==w?"none"!=k[p]?/^[0-9 .]*$/.test(k[p])?k[p]=Y(k[p]," "):(console.warn("unsupported value: "+k[p]),k[p]=[0]):k[p]=[0]:32==w?(H(k[p]),k[p]=parseFloat(k[p])):0===C&&(k[p]=parseFloat(k[p]));C=J(g,"e","easing");k=m.length;for(C||(C=[]);C.length<k;)C.push([1,0,0,.58,1]);for(k=0;k<C.length;++k)C[k]=ia(C[k]);l=[f,l,B,v,m,u,C,y];m=J(g,"mp","motionPath");
t(m)&&0===f&&(l[8]=[],l[8][0]=g.motionRotate,g=document.createElementNS("http://www.w3.org/2000/svg","path"),m||(m="M0,0"),g.setAttribute("d",m),l[8][1]=g,l[8][2]=g.getTotalLength());q.push(l)}0<q.length&&(a.A.push(e),a.C.push(q))}a.v=c;a.g=0;a.f=a.v;ba(a);return a},add:ba,remove:P,removeAll:function(){for(var a=w.length-1;0<=a;--a)P(w[a]);return this},timelines:function(){return w.slice()},globalPlay:function(){u&&(W=u-(new Date).getTime(),u=void 0,N());return this},globalPause:function(){u||(u=
v,O(!1));return this},globalState:function(){return u?"paused":"running"}}}();
]]></script><script><![CDATA[if(KeyshapeJS.version.indexOf('1.')!=0)throw Error('Expected KeyshapeJS v1.*.*');window.ks=document.ks=KeyshapeJS;(function(ks){
ks.animate("#Instruments",[{p:'mpath',t:[0,1200],v:['0%','0%'],e:[[1,.4,0,1,1],[0]],mp:"M260.4,222.1L260.4,222.1"},{p:'anchorX',t:[0,1200],v:[-1424.1,-1424.1],e:[[1,.4,0,1,1],[0]]},{p:'anchorY',t:[0,1200],v:[-490.5,-490.5],e:[[1,.4,0,1,1],[0]]}],
"#Synth",[{p:'mpath',t:[400,1400],v:['0%','100%'],e:[[1,.4,0,1,1],[0]],mp:"M1450,588.5L1357.9,588.5"},{p:'rotate',t:[0,3000,6000,8000,10000],v:[-15,-25,-15,-25,-15],e:[[0],[0],[0],[0],[0]]},{p:'opacity',t:[1200,1400],v:[0,1],e:[[1,.4,0,1,1],[0]]}],
"#Drums_1",[{p:'mpath',t:[700,1800],v:['0%','100%'],e:[[1,.4,0,1,1],[0]],mp:"M1300,418.2L1228.7,418.2"},{p:'rotate',t:[0,4000,6000,8000,10000],v:[5,20,5,15,5],e:[[0],[0],[0],[0],[0]]},{p:'opacity',t:[1600,1800],v:[0,1],e:[[1,.4,0,1,1],[0]]}],
"#_a0",[{p:'fill',t:[5000,5500,6000],v:['#e6e6e6','#ffffff','#e6e6e6'],e:[[0],[0],[0]]}],
"#Guitar",[{p:'mpath',t:[0,2200],v:['0%','100%'],e:[[1,.4,0,1,1],[0]],mp:"M1414.6,493.7L1458.6,433.8"},{p:'rotate',t:[0,3000,5000,8000,10000],v:[40,45,38,36,40],e:[[0],[0],[0],[0],[0]]},{p:'opacity',t:[2000,2200],v:[0,1],e:[[1,.4,0,1,1],[0]]}],
"#_a1",[{p:'anchorX',t:[0,666],v:[-442.9,-442.9],e:[[0],[0]]},{p:'anchorY',t:[0,666],v:[-309.4,-309.4],e:[[0],[0]]},{p:'opacity',t:[0,666],v:[0,1],e:[[0],[0]]}],
"#Tracé_399-2",[{p:'rotate',t:[1000,1500,2000],v:[0,10,0],e:[[0],[0],[0]]},{p:'skewX',t:[0,733,1466,2000,4000,8000,10000],v:[10,0,0,0,2,-2,0],e:[[0],[0],[0],[0],[0],[0],[0]]},{p:'skewY',t:[0,733,1466,2000,4000,8000,10000],v:[15,0,-10,0,-4,5,0],e:[[0],[0],[0],[0],[0],[0],[0]]}],
"#Head",[{p:'mpath',t:[1000,1200,1500],v:['0%','50%','100%'],e:[[0],[1,0,0,1,1],[0]],mp:"M196.2,104.2L220,105L196.2,104.2"},{p:'rotate',t:[1000,1200,1500],v:[0,15,0],e:[[0],[0],[0]]},{p:'anchorX',t:[1000,1200,1500],v:[-26.1,-26.1,-26.1],e:[[0],[0],[0]]},{p:'anchorY',t:[1000,1200,1500],v:[-38.4,-33.9,-38.4],e:[[0],[0],[0]]}],
"#Dress",[{p:'mpath',t:[700,1000],v:['0%','100%'],e:[[0],[0]],mp:"M191,213.7L191.5,213.7"},{p:'rotate',t:[1000,1200,1500],v:[0,10,0],e:[[0],[0],[0]]}],
"#Garland",[{p:'opacity',t:[0,400],v:[0,1],e:[[0],[0]]},{p:'filter',t:[0,200],v:['blur(3px)','blur(0px)'],e:[[0],[0]]}],
"#Tracé_403",[{p:'skewX',t:[0,700,3000,5000,7000,10000],v:[0,20,0,20,-10,0],e:[[0],[0],[0],[0],[0],[0]]},{p:'skewY',t:[0,700,3000,5000,7000,10000],v:[0,0,0,0,0,0],e:[[0],[0],[0],[0],[0],[0]]}],
"#Tracé_404",[{p:'skewX',t:[0,700,3000,5000,7000,10000],v:[0,5,20,4,10,0],e:[[0],[0],[0],[0],[0],[0]]},{p:'skewY',t:[0,700,3000,5000,7000,10000],v:[0,0,0,0,0,0],e:[[0],[0],[0],[0],[0],[0]]}],
"#Tracé_405",[{p:'skewX',t:[0,700,3000,5000,7000,10000],v:[0,10,-5,10,-5,0],e:[[0],[0],[0],[0],[0],[0]]},{p:'skewY',t:[0,700,3000,5000,7000,10000],v:[0,0,0,0,0,0],e:[[0],[0],[0],[0],[0],[0]]}],
"#Tracé_406",[{p:'skewX',t:[0,700,3000,5000,7000,10000],v:[0,10,5,0,-5,0],e:[[0],[0],[0],[0],[0],[0]]},{p:'skewY',t:[0,700,3000,5000,7000,10000],v:[0,0,0,0,0,0],e:[[0],[0],[0],[0],[0],[0]]}],
"#Tracé_407",[{p:'skewX',t:[0,700,3000,5000,7000,10000],v:[0,10,5,10,20,0],e:[[0],[0],[0],[0],[0],[0]]},{p:'skewY',t:[0,700,3000,5000,7000,10000],v:[0,0,0,0,0,0],e:[[0],[0],[0],[0],[0],[0]]}],
"#Tracé_408",[{p:'skewX',t:[0,700,3000,5000,7000,10000],v:[0,-5,-20,-10,5,0],e:[[0],[0],[0],[0],[0],[0]]},{p:'skewY',t:[0,700,3000,5000,7000,10000],v:[0,0,0,0,0,0],e:[[0],[0],[0],[0],[0],[0]]}],
"#Drums_2",[{p:'rotate',t:[0,4000,7000,10000],v:[-33,-25,-22,-33],e:[[0],[0],[0],[0]]},{p:'scaleX',t:[1200,1400,1600],v:[1,1.1,1],e:[[0],[1,0,0,.6,1],[0]]},{p:'scaleY',t:[1200,1400,1600],v:[1,1.1,1],e:[[0],[1,0,0,.6,1],[0]]},{p:'opacity',t:[800,1000],v:[0,1],e:[[0],[0]]}],
"#_a2",[{p:'fill',t:[1234,1500,1700],v:['#e6e6e6','#ffffff','#e6e6e6'],e:[[1,.4,0,1,1],[1,0,0,.6,1],[0]]}],
"#Stick",[{p:'mpath',t:[0,1000,1160,1240,1320,1400],v:['0%','0%','48.6%','71.1%','93.2%','100%'],e:[[1,.4,0,1,1],[1,.4,0,1,1],[0],[0],[0],[0]],mp:"M1540,490L1540,490L1546.1,525L1547.9,508.6L1546.1,492.6L1546.1,487.6"},{p:'rotate',t:[1000,1160,1320],v:[62,90,62],e:[[1,.4,0,1,1],[0],[0]]},{p:'anchorX',t:[1000,1160],v:[-2.5,-2.5],e:[[1,.4,0,1,1],[0]]},{p:'anchorY',t:[1000,1160],v:[-57.6,-57.6],e:[[1,.4,0,1,1],[0]]},{p:'opacity',t:[400,600],v:[0,1],e:[[1,.4,0,1,1],[1,.4,0,1,1]]}],
{autoremove:false}).range(0,10000).loop(true);
if(document.location.search.substr(1).split('&').indexOf('global=paused')>=0)ks.globalPause()})(KeyshapeJS);
]]></script></svg>